<svg xmlns="http://www.w3.org/2000/svg" width="18.454" height="13.604" viewBox="0 0 18.454 13.604">
  <g id="contact_1_" data-name="contact (1)" transform="translate(-97.179 -119.104)">
    <path id="Path_8" data-name="Path 8" d="M160.484,121.975a2.871,2.871,0,1,0-2.871,2.871A2.874,2.874,0,0,0,160.484,121.975Zm-4.89,0a2.019,2.019,0,1,1,2.019,2.019A2.021,2.021,0,0,1,155.595,121.975Z" transform="translate(-54.177)" fill="#10284b"/>
    <path id="Path_9" data-name="Path 9" d="M97.193,241.584a1.162,1.162,0,0,0,.28.95,1.242,1.242,0,0,0,.934.419H103.5a.426.426,0,1,0,0-.852H98.406a.362.362,0,0,1-.272-.122.323.323,0,0,1-.079-.266,5.313,5.313,0,0,1,1.831-3.225,5.57,5.57,0,0,1,7.942.8,4.48,4.48,0,0,0-1.377,2.809h-1.2a.426.426,0,1,0,0,.852H114.4a1.236,1.236,0,0,0,.964-.455,1.155,1.155,0,0,0,.232-1,4.542,4.542,0,0,0-1.617-2.5,4.733,4.733,0,0,0-5.477-.238,6.458,6.458,0,0,0-9.191-.911,6.161,6.161,0,0,0-2.122,3.74Zm17.558.1a.321.321,0,0,1-.066.281.36.36,0,0,1-.281.133h-7.076a3.791,3.791,0,0,1,7.422-.414Z" transform="translate(0 -110.245)" fill="#10284b"/>
    <path id="Path_10" data-name="Path 10" d="M302.19,177.024a2.166,2.166,0,1,0-2.166,2.166A2.168,2.168,0,0,0,302.19,177.024Zm-3.48,0a1.314,1.314,0,1,1,1.314,1.314A1.316,1.316,0,0,1,298.71,177.024Z" transform="translate(-188.838 -52.472)" fill="#10284b"/>
  </g>
</svg>
