<svg xmlns="http://www.w3.org/2000/svg" width="28.694" height="18.401" viewBox="0 0 28.694 18.401">
  <g id="group_3_" data-name="group (3)" transform="translate(0.25 -92)">
    <g id="Group_2872" data-name="Group 2872" transform="translate(0 92.25)">
      <path id="Path_2341" data-name="Path 2341" d="M24.384,100.127a3.219,3.219,0,1,0-3.693,0,5.577,5.577,0,0,0-1.9,1.116,7.217,7.217,0,0,0-2.611-1.423,4.078,4.078,0,1,0-4.217,0,7.277,7.277,0,0,0-2.583,1.406,5.622,5.622,0,0,0-1.88-1.093,3.219,3.219,0,1,0-3.693,0A5.65,5.65,0,0,0,0,105.471v.368a.024.024,0,0,0,.022.022H6.845a7.5,7.5,0,0,0-.061.943v.379a2.966,2.966,0,0,0,2.968,2.968H18.4a2.966,2.966,0,0,0,2.968-2.968V106.8a7.5,7.5,0,0,0-.061-.943h6.867a.024.024,0,0,0,.022-.022v-.368A5.672,5.672,0,0,0,24.384,100.127Zm-4.173-2.639a2.326,2.326,0,1,1,2.371,2.326h-.089A2.323,2.323,0,0,1,20.211,97.488Zm-9.338-1.16a3.185,3.185,0,1,1,3.369,3.18h-.368A3.19,3.19,0,0,1,10.872,96.328Zm-7.564,1.16a2.326,2.326,0,1,1,2.371,2.326H5.59A2.327,2.327,0,0,1,3.308,97.488ZM7,104.963H.9a4.766,4.766,0,0,1,4.7-4.256h.067a4.717,4.717,0,0,1,3.04,1.132A7.325,7.325,0,0,0,7,104.963Zm13.461,2.22a2.078,2.078,0,0,1-2.075,2.075H9.74a2.078,2.078,0,0,1-2.075-2.075V106.8a6.408,6.408,0,0,1,6.209-6.4c.061.006.128.006.19.006s.128,0,.19-.006a6.408,6.408,0,0,1,6.209,6.4Zm.664-2.22a7.305,7.305,0,0,0-1.69-3.1,4.74,4.74,0,0,1,3.068-1.155h.067a4.766,4.766,0,0,1,4.7,4.256Z" transform="translate(0 -92.25)" fill="#72849a" stroke="#72849a" stroke-width="0.5"/>
    </g>
  </g>
</svg>
