<svg xmlns="http://www.w3.org/2000/svg" width="20.759" height="13.845" viewBox="0 0 20.759 13.845">
  <path id="Icon_ionic-ios-arrow-round-forward" data-name="Icon ionic-ios-arrow-round-forward" d="M18.489,7.766a.942.942,0,0,0-.007,1.327l4.384,4.391H6.18a.937.937,0,0,0,0,1.875H22.858L18.474,19.75a.949.949,0,0,0,.007,1.327.934.934,0,0,0,1.32-.007l5.942-5.985h0a1.053,1.053,0,0,0,.195-.3.9.9,0,0,0,.072-.361.94.94,0,0,0-.267-.656L19.8,7.788A.919.919,0,0,0,18.489,7.766Z" transform="translate(26.009 21.346) rotate(180)" fill="#fff"/>
</svg>
