<svg xmlns="http://www.w3.org/2000/svg" width="19.319" height="17.029" viewBox="0 0 19.319 17.029">
  <path id="Icon_awesome-briefcase" data-name="Icon awesome-briefcase" d="M11.449,13.127a.572.572,0,0,1-.572.572H7.442a.572.572,0,0,1-.572-.572V11.409H0v5.152a1.761,1.761,0,0,0,1.717,1.717H16.6a1.761,1.761,0,0,0,1.717-1.717V11.409h-6.87ZM16.6,5.685H13.739V3.967A1.761,1.761,0,0,0,12.022,2.25H6.3A1.761,1.761,0,0,0,4.58,3.967V5.685H1.717A1.761,1.761,0,0,0,0,7.4v2.862H18.319V7.4A1.761,1.761,0,0,0,16.6,5.685Zm-5.152,0H6.87V4.54h4.58Z" transform="translate(0.5 -1.75)" fill="none" stroke="#455560" stroke-width="1"/>
</svg>
