<svg xmlns="http://www.w3.org/2000/svg" width="17.608" height="21.324" viewBox="0 0 17.608 21.324">
  <g id="case-study" transform="translate(-44.614)">
    <path id="Path_2177" data-name="Path 2177" d="M62.013,18.419,59.9,16.3a4.6,4.6,0,0,0-.54-5.258V4.4a1.02,1.02,0,0,0-1.018-1.018h-2.46V3.055A1.57,1.57,0,0,0,54.31,1.487h-.379V1.116A1.117,1.117,0,0,0,52.815,0h-1.66a1.117,1.117,0,0,0-1.116,1.116v.371h-.379a1.57,1.57,0,0,0-1.568,1.568v.323h-2.46A1.02,1.02,0,0,0,44.614,4.4V20.306a1.02,1.02,0,0,0,1.018,1.018H56.409a.312.312,0,0,0,0-.623H45.632a.4.4,0,0,1-.395-.395V4.4A.4.4,0,0,1,45.632,4h2.46v.1a.533.533,0,0,0,.532.532h1.02a.312.312,0,1,0,0-.623h-.928V3.055a.946.946,0,0,1,.945-.945H54.31a.946.946,0,0,1,.945.945v.957h-4.1a.312.312,0,0,0,0,.623h4.189a.533.533,0,0,0,.532-.532V4h2.46a.4.4,0,0,1,.395.395v6.054a4.588,4.588,0,0,0-5.168-.352.312.312,0,1,0,.317.537,3.969,3.969,0,1,1-1.01.85.312.312,0,1,0-.474-.4,4.592,4.592,0,0,0,5.743,6.98l.593.593v1.651a.4.4,0,0,1-.395.395h-.424a.312.312,0,0,0,0,.623h.424a1.02,1.02,0,0,0,1.018-1.018V19.278l.9.9a.714.714,0,0,0,1.009,0l.749-.749a.713.713,0,0,0,0-1.009Zm-11.35-17.3a.493.493,0,0,1,.493-.493h1.66a.493.493,0,0,1,.493.493v.371H50.663ZM61.572,18.987l-.749.749a.09.09,0,0,1-.127,0l-2.025-2.025a4.663,4.663,0,0,0,.467-.409,4.614,4.614,0,0,0,.408-.468l2.025,2.025A.09.09,0,0,1,61.572,18.987Z" transform="translate(0)" fill="#0f243e"/>
    <path id="Path_2178" data-name="Path 2178" d="M276.877,158.212h2.642a.312.312,0,1,0,0-.623h-2.642a.312.312,0,0,0,0,.623Z" transform="translate(-222.291 -151.026)" fill="#0f243e"/>
    <path id="Path_2179" data-name="Path 2179" d="M91.917,158.212h5.767a.312.312,0,1,0,0-.623H91.917a.312.312,0,1,0,0,.623Z" transform="translate(-45.034 -151.026)" fill="#0f243e"/>
    <path id="Path_2180" data-name="Path 2180" d="M91.917,189.029h5.767a.312.312,0,1,0,0-.623H91.917a.312.312,0,1,0,0,.623Z" transform="translate(-45.034 -180.559)" fill="#0f243e"/>
    <path id="Path_2181" data-name="Path 2181" d="M95.565,221.008a.312.312,0,0,0-.312-.312H91.917a.312.312,0,1,0,0,.623h3.337A.312.312,0,0,0,95.565,221.008Z" transform="translate(-45.034 -211.504)" fill="#0f243e"/>
    <path id="Path_2182" data-name="Path 2182" d="M276.877,189.029h2.642a.312.312,0,1,0,0-.623h-2.642a.312.312,0,0,0,0,.623Z" transform="translate(-222.291 -180.559)" fill="#0f243e"/>
    <path id="Path_2183" data-name="Path 2183" d="M90.4,301.1a1.516,1.516,0,1,0,1.516,1.516A1.518,1.518,0,0,0,90.4,301.1Zm0,2.409a.893.893,0,1,1,.893-.893A.894.894,0,0,1,90.4,303.513Z" transform="translate(-42.424 -288.563)" fill="#0f243e"/>
    <path id="Path_2184" data-name="Path 2184" d="M90.4,402.027a1.516,1.516,0,1,0,1.516,1.516A1.518,1.518,0,0,0,90.4,402.027Zm0,2.409a.893.893,0,1,1,.893-.893A.894.894,0,0,1,90.4,404.436Z" transform="translate(-42.424 -385.283)" fill="#0f243e"/>
    <path id="Path_2185" data-name="Path 2185" d="M179.881,431.57h1.439a.312.312,0,1,0,0-.623h-1.439a.312.312,0,0,0,0,.623Z" transform="translate(-129.334 -412.999)" fill="#0f243e"/>
  </g>
</svg>
