<svg xmlns="http://www.w3.org/2000/svg" width="17.791" height="16.318" viewBox="0 0 17.791 16.318">
  <g id="padlock" transform="translate(0 -20.113)">
    <g id="Group_2856" data-name="Group 2856" transform="translate(0 20.113)">
      <path id="Path_2282" data-name="Path 2282" d="M15.4,22.5a8.158,8.158,0,0,0-11.611.073.44.44,0,0,0,.63.615,7.279,7.279,0,1,1-2.068,5.081v-.092l.725.725a.441.441,0,0,0,.311.128.447.447,0,0,0,.311-.128.44.44,0,0,0,0-.622L2.226,26.808a.44.44,0,0,0-.622,0L.129,28.283a.439.439,0,0,0,.311.75.447.447,0,0,0,.311-.128l.725-.725v.092A8.158,8.158,0,0,0,15.4,34.041a8.161,8.161,0,0,0,0-11.538Z" transform="translate(0 -20.113)" fill="#4b4b4e"/>
      <path id="Path_2283" data-name="Path 2283" d="M162.258,113.413A2.59,2.59,0,0,0,159.67,116v1.248h-.805a.441.441,0,0,0-.439.439v4.382a.441.441,0,0,0,.439.439h6.79a.441.441,0,0,0,.439-.439v-4.378a.441.441,0,0,0-.439-.439h-.805V116A2.6,2.6,0,0,0,162.258,113.413ZM160.548,116a1.709,1.709,0,0,1,3.419,0v1.248h-3.419V116Zm4.667,5.626H159.3v-3.5h5.912Z" transform="translate(-152.626 -109.998)" fill="#4b4b4e"/>
    </g>
  </g>
</svg>
