<svg xmlns="http://www.w3.org/2000/svg" width="18.047" height="13.309" viewBox="0 0 18.047 13.309">
  <g id="identification" transform="translate(0 5.25)">
    <path id="Path_14" data-name="Path 14" d="M116.569,85.638a1.944,1.944,0,1,0-1.944-1.944A1.944,1.944,0,0,0,116.569,85.638Zm0-3.132a1.192,1.192,0,1,1-1.192,1.192A1.192,1.192,0,0,1,116.569,82.506Zm0,0" transform="translate(-111.177 -84.383)" fill="#10284b"/>
    <path id="Path_15" data-name="Path 15" d="M82.985,234.872a2.917,2.917,0,0,0-2.113.884A3.118,3.118,0,0,0,80,237.963a.377.377,0,0,0,.376.376h5.218a.377.377,0,0,0,.376-.376,3.118,3.118,0,0,0-.872-2.207A2.917,2.917,0,0,0,82.985,234.872Zm-2.207,2.714a2.3,2.3,0,0,1,.632-1.3,2.215,2.215,0,0,1,3.151,0,2.311,2.311,0,0,1,.632,1.3Zm0,0" transform="translate(-77.594 -232.9)" fill="#10284b"/>
    <path id="Path_16" data-name="Path 16" d="M16.167-5.25H1.88A1.881,1.881,0,0,0,0-3.37v9.55a1.881,1.881,0,0,0,1.88,1.88H16.167a1.881,1.881,0,0,0,1.88-1.88V-3.37A1.881,1.881,0,0,0,16.167-5.25ZM17.295,6.179a1.131,1.131,0,0,1-1.128,1.128H1.88A1.131,1.131,0,0,1,.752,6.179V-3.37A1.131,1.131,0,0,1,1.88-4.5H16.167A1.131,1.131,0,0,1,17.295-3.37Zm0,0" fill="#10284b"/>
    <path id="Path_17" data-name="Path 17" d="M353.381,203.5H349a.376.376,0,1,0,0,.752h4.38a.376.376,0,0,0,0-.752Zm0,0" transform="translate(-338.139 -202.471)" fill="#10284b"/>
    <path id="Path_18" data-name="Path 18" d="M353.381,283.5H349a.376.376,0,0,0,0,.752h4.38a.376.376,0,0,0,0-.752Zm0,0" transform="translate(-338.139 -280.065)" fill="#10284b"/>
    <path id="Path_19" data-name="Path 19" d="M353.381,123.5H349a.376.376,0,1,0,0,.752h4.38a.376.376,0,0,0,0-.752Zm0,0" transform="translate(-338.139 -124.878)" fill="#10284b"/>
  </g>
</svg>
