<svg xmlns="http://www.w3.org/2000/svg" width="36" height="26.54" viewBox="0 0 36 26.54">
  <g id="contact_1_" data-name="contact (1)" transform="translate(-97.179 -119.104)">
    <path id="Path_8" data-name="Path 8" d="M165.944,124.7a5.6,5.6,0,1,0-5.6,5.6A5.607,5.607,0,0,0,165.944,124.7Zm-9.539,0a3.939,3.939,0,1,1,3.939,3.939A3.943,3.943,0,0,1,156.4,124.7Z" transform="translate(-50.956)" fill="#2c71ff"/>
    <path id="Path_9" data-name="Path 9" d="M97.206,246.577a2.267,2.267,0,0,0,.545,1.853,2.424,2.424,0,0,0,1.822.817h9.939a.831.831,0,1,0,0-1.662H99.573a.705.705,0,0,1-.53-.238.63.63,0,0,1-.154-.518,10.365,10.365,0,0,1,3.572-6.292,10.866,10.866,0,0,1,15.493,1.569,8.74,8.74,0,0,0-2.687,5.48h-2.349a.831.831,0,1,0,0,1.662h17.864a2.411,2.411,0,0,0,1.882-.888,2.254,2.254,0,0,0,.452-1.96,8.861,8.861,0,0,0-3.155-4.878,9.233,9.233,0,0,0-10.684-.464,12.6,12.6,0,0,0-17.931-1.778,12.019,12.019,0,0,0-4.14,7.3Zm34.252.2a.626.626,0,0,1-.129.548.7.7,0,0,1-.547.259h-13.8a7.4,7.4,0,0,1,14.48-.807Z" transform="translate(0 -103.603)" fill="#2c71ff"/>
    <path id="Path_10" data-name="Path 10" d="M306.309,179.084a4.226,4.226,0,1,0-4.226,4.226A4.23,4.23,0,0,0,306.309,179.084Zm-6.79,0a2.564,2.564,0,1,1,2.564,2.564A2.567,2.567,0,0,1,299.52,179.084Z" transform="translate(-177.579 -49.351)" fill="#2c71ff"/>
  </g>
</svg>
