<svg xmlns="http://www.w3.org/2000/svg" width="18.946" height="14.025" viewBox="0 0 18.946 14.025">
  <g id="identification_1_" data-name="identification (1)" transform="translate(0.1 5.35)">
    <path id="Path_2279" data-name="Path 2279" d="M116.768,86.035a2.143,2.143,0,1,0-2.143-2.143A2.143,2.143,0,0,0,116.768,86.035Zm0-3.452a1.314,1.314,0,1,1-1.314,1.314A1.314,1.314,0,0,1,116.768,82.583Zm0,0" transform="translate(-111.104 -84.35)" fill="#455560" stroke="#455560" stroke-width="0.2"/>
    <path id="Path_2280" data-name="Path 2280" d="M83.29,234.872a3.215,3.215,0,0,0-2.329.974A3.437,3.437,0,0,0,80,238.279a.416.416,0,0,0,.414.414h5.752a.416.416,0,0,0,.414-.414,3.437,3.437,0,0,0-.961-2.433A3.215,3.215,0,0,0,83.29,234.872Zm-2.433,2.992a2.535,2.535,0,0,1,.7-1.438,2.441,2.441,0,0,1,3.473,0,2.547,2.547,0,0,1,.7,1.438Zm0,0" transform="translate(-77.348 -232.782)" fill="#455560" stroke="#455560" stroke-width="0.2"/>
    <path id="Path_2281" data-name="Path 2281" d="M16.793-5.25H1.953A1.954,1.954,0,0,0,0-3.3v9.92A1.954,1.954,0,0,0,1.953,8.575h14.84a1.954,1.954,0,0,0,1.953-1.953V-3.3A1.954,1.954,0,0,0,16.793-5.25ZM17.965,6.622a1.175,1.175,0,0,1-1.172,1.172H1.953A1.175,1.175,0,0,1,.781,6.622V-3.3A1.175,1.175,0,0,1,1.953-4.469h14.84A1.175,1.175,0,0,1,17.965-3.3Zm0,0" fill="#455560" stroke="#455560" stroke-width="0.2"/>
    <path id="Path_2282" data-name="Path 2282" d="M353.867,203.5h-4.828a.414.414,0,0,0,0,.829h4.828a.414.414,0,1,0,0-.829Zm0,0" transform="translate(-338.213 -202.252)" fill="#455560" stroke="#455560" stroke-width="0.2"/>
    <path id="Path_2283" data-name="Path 2283" d="M353.867,283.5h-4.828a.414.414,0,0,0,0,.829h4.828a.414.414,0,0,0,0-.829Zm0,0" transform="translate(-338.213 -279.762)" fill="#455560" stroke="#455560" stroke-width="0.2"/>
    <path id="Path_2284" data-name="Path 2284" d="M353.867,123.5h-4.828a.414.414,0,0,0,0,.829h4.828a.414.414,0,1,0,0-.829Zm0,0" transform="translate(-338.213 -124.742)" fill="#455560" stroke="#455560" stroke-width="0.2"/>
  </g>
</svg>
