<svg xmlns="http://www.w3.org/2000/svg" width="19.335" height="12.89" viewBox="0 0 19.335 12.89">
  <g id="speedometer_1_" data-name="speedometer (1)" transform="translate(0 -85.329)">
    <g id="Group_2811" data-name="Group 2811" transform="translate(0 85.329)">
      <g id="Group_2810" data-name="Group 2810">
        <path id="Path_2168" data-name="Path 2168" d="M245.736,119.753a.4.4,0,0,0,.4-.4v-1.611a.4.4,0,0,0-.806,0v1.611A.4.4,0,0,0,245.736,119.753Z" transform="translate(-236.068 -116.127)" fill="#10284b"/>
        <path id="Path_2169" data-name="Path 2169" d="M216.544,209.927h0a.4.4,0,0,0-.552.142h0l-1.886,3.2a1.635,1.635,0,1,0,.718.369l1.861-3.153A.4.4,0,0,0,216.544,209.927Zm-2.1,5.335a.8.8,0,1,1-.678-1.233.8.8,0,0,1,.282.054c.01.008.017.019.028.025a.4.4,0,0,0,.112.044A.806.806,0,0,1,214.441,215.262Z" transform="translate(-204.096 -205.167)" fill="#10284b"/>
        <path id="Path_2170" data-name="Path 2170" d="M416,331.073a.4.4,0,0,0,.4.4h1.611a.4.4,0,0,0,0-.806H416.4A.4.4,0,0,0,416,331.073Z" transform="translate(-400.29 -321.405)" fill="#10284b"/>
        <path id="Path_2171" data-name="Path 2171" d="M34.014,330.67H32.4a.4.4,0,0,0,0,.806h1.611a.4.4,0,1,0,0-.806Z" transform="translate(-30.792 -321.405)" fill="#10284b"/>
        <path id="Path_2172" data-name="Path 2172" d="M141.584,148.486a.4.4,0,0,0-.694.409l.685,1.163a.4.4,0,1,0,.694-.409Z" transform="translate(-135.516 -145.911)" fill="#10284b"/>
        <path id="Path_2173" data-name="Path 2173" d="M394.9,224.4a.4.4,0,0,0,.549.153l1.189-.671a.4.4,0,0,0-.4-.7l-1.189.671A.4.4,0,0,0,394.9,224.4Z" transform="translate(-379.935 -217.922)" fill="#10284b"/>
        <path id="Path_2174" data-name="Path 2174" d="M66.134,223.838l-1.189-.671a.4.4,0,1,0-.4.7l1.189.671a.4.4,0,1,0,.4-.7Z" transform="translate(-61.914 -217.912)" fill="#10284b"/>
        <path id="Path_2175" data-name="Path 2175" d="M332.928,148.339h0a.4.4,0,0,0-.552.142h0l-.685,1.163a.4.4,0,1,0,.694.41l.685-1.163A.4.4,0,0,0,332.928,148.339Z" transform="translate(-319.11 -145.905)" fill="#10284b"/>
        <path id="Path_2176" data-name="Path 2176" d="M16.483,88.083A9.709,9.709,0,0,0,0,94.984v2.161a1.083,1.083,0,0,0,1.088,1.074h17.16a1.083,1.083,0,0,0,1.088-1.074V94.8A9.306,9.306,0,0,0,16.483,88.083Zm2.046,9.063a.276.276,0,0,1-.282.269H1.088a.276.276,0,0,1-.282-.269V94.984A8.9,8.9,0,0,1,15.921,88.66,8.506,8.506,0,0,1,18.529,94.8v2.35Z" transform="translate(0 -85.329)" fill="#10284b"/>
      </g>
    </g>
  </g>
</svg>
