<svg xmlns="http://www.w3.org/2000/svg" width="19.352" height="13.227" viewBox="0 0 19.352 13.227">
  <path id="Icon_awesome-folder-open" data-name="Icon awesome-folder-open" d="M18.235,11.762l-2.306,3.953a2.038,2.038,0,0,1-1.76,1.011H1.434a.764.764,0,0,1-.66-1.149L3.08,11.624a2.038,2.038,0,0,1,1.76-1.011H17.575a.764.764,0,0,1,.66,1.149ZM4.84,9.594H15.283V8.066a1.528,1.528,0,0,0-1.528-1.528H8.66L6.623,4.5H1.528A1.528,1.528,0,0,0,0,6.028v8.853l2.2-3.77A3.067,3.067,0,0,1,4.84,9.594Z" transform="translate(0.5 -4)" fill="none" stroke="#455560" stroke-width="1"/>
</svg>
