<svg xmlns="http://www.w3.org/2000/svg" width="18.011" height="18.008" viewBox="0 0 18.011 18.008">
  <g id="contract" transform="translate(0 -0.039)">
    <path id="Path_2186" data-name="Path 2186" d="M202.848,96.686a.9.9,0,0,0-1.651-.216l-.15.261a.3.3,0,0,0-.408.108l-.762,1.3-.261-.15a.3.3,0,1,0-.3.519l.261.15-2.551,4.421-.63,1.684-.3.561a.9.9,0,0,0,.048.973l-.675.828-.189-.474a.6.6,0,0,0-1.072-.084l-.108.183-.1-1.2a.6.6,0,0,0-1.168-.141l-.738,2.215a.3.3,0,0,0,.189.378.26.26,0,0,0,.093.024.3.3,0,0,0,.285-.2l.735-2.215.105,1.218a.6.6,0,0,0,1.113.258l.111-.183.186.471a.6.6,0,0,0,1.026.153l.7-.885a.924.924,0,0,0,.237.03.9.9,0,0,0,.783-.444l.3-.5,1.144-1.39,2.578-4.475.261.15a.3.3,0,0,1,.111.411l-1.2,2.08a.3.3,0,1,0,.507.312l1.2-2.08a.9.9,0,0,0-.33-1.231l-.261-.15.75-1.3a.3.3,0,0,0-.108-.408l.15-.261a.9.9,0,0,0,.09-.7Zm-1.132.084a.3.3,0,0,1,.183-.141.315.315,0,0,1,.228.03.3.3,0,0,1,.141.183.315.315,0,0,1-.03.228l-.15.261-.522-.3Zm-4.091,8.38-.15-.087-.444-.258.426-1.14.945.546Zm-.9.867a.3.3,0,0,1-.09-.393l.15-.261.522.3-.15.258a.3.3,0,0,1-.432.1Zm2.02-2.3-1.038-.6,2.4-4.16,1.038.6Zm2.7-4.679-1.038-.6.6-1.038,1.038.6Zm0,0" transform="translate(-184.87 -92.379)" fill="#0f243e"/>
    <path id="Path_2187" data-name="Path 2187" d="M69.523,356.669l-1.062,1.06-.636-.636a.3.3,0,1,0-.423.426l.636.636a.605.605,0,0,0,.849,0l1.059-1.062a.3.3,0,0,0-.423-.423Zm0,0" transform="translate(-64.787 -343.181)" fill="#0f243e"/>
    <path id="Path_2188" data-name="Path 2188" d="M32,314.592a2.551,2.551,0,1,0,5.1,0,.3.3,0,0,0-.6,0,1.951,1.951,0,1,1-.78-1.561.3.3,0,0,0,.36-.48A2.551,2.551,0,0,0,32,314.592Zm0,0" transform="translate(-30.799 -300.297)" fill="#0f243e"/>
    <path id="Path_2189" data-name="Path 2189" d="M80.1,48.639a.3.3,0,0,0,0-.6H72.3a.3.3,0,0,0-.3.3v1.2a.3.3,0,0,0,.3.3h7.8a.3.3,0,0,0,0-.6H72.6v-.6Zm0,0" transform="translate(-69.299 -46.199)" fill="#0f243e"/>
    <path id="Path_2190" data-name="Path 2190" d="M96.3,112.039a.3.3,0,0,0,0,.6h6a.3.3,0,1,0,0-.6Zm0,0" transform="translate(-92.398 -107.798)" fill="#0f243e"/>
    <path id="Path_2191" data-name="Path 2191" d="M134.9,168.039h-6.6a.3.3,0,1,0,0,.6h6.6a.3.3,0,0,0,0-.6Zm0,0" transform="translate(-123.198 -161.697)" fill="#0f243e"/>
    <path id="Path_2192" data-name="Path 2192" d="M62.6,216.339a.3.3,0,0,0-.3-.3h-6a.3.3,0,1,0,0,.6h6A.3.3,0,0,0,62.6,216.339Zm0,0" transform="translate(-53.899 -207.896)" fill="#0f243e"/>
    <path id="Path_2193" data-name="Path 2193" d="M250.4,216.039h-2.1a.3.3,0,0,0,0,.6h2.1a.3.3,0,1,0,0-.6Zm0,0" transform="translate(-238.696 -207.896)" fill="#0f243e"/>
    <path id="Path_2194" data-name="Path 2194" d="M59.3,256.639a.3.3,0,0,0,0-.6h-3a.3.3,0,0,0,0,.6Zm0,0" transform="translate(-53.899 -246.396)" fill="#0f243e"/>
    <path id="Path_2195" data-name="Path 2195" d="M168.3,256.639h2.1a.3.3,0,1,0,0-.6h-2.1a.3.3,0,0,0,0,.6Zm0,0" transform="translate(-161.697 -246.396)" fill="#0f243e"/>
    <path id="Path_2196" data-name="Path 2196" d="M13.506,13.845a.3.3,0,0,0-.3.3v3a.3.3,0,0,1-.3.3H.9a.3.3,0,0,1-.3-.3V.939a.3.3,0,0,1,.3-.3H12.906a.3.3,0,0,1,.3.3V6.576a.3.3,0,1,0,.6,0V.939a.9.9,0,0,0-.9-.9H.9a.9.9,0,0,0-.9.9V17.147a.9.9,0,0,0,.9.9H12.906a.9.9,0,0,0,.9-.9v-3A.3.3,0,0,0,13.506,13.845Zm0,0" fill="#0f243e"/>
  </g>
</svg>
