<svg xmlns="http://www.w3.org/2000/svg" width="19.902" height="22.003" viewBox="0 0 19.902 22.003">
  <path id="Icon_material-event-available" data-name="Icon material-event-available" d="M18.708,12.064,17.6,10.951,12.47,16.076,10.244,13.85,9.131,14.963,12.47,18.3ZM21.3,3.6h-1.05V1.5h-2.1V3.6h-8.4V1.5H7.65V3.6H6.6a2.091,2.091,0,0,0-2.09,2.1L4.5,20.4a2.1,2.1,0,0,0,2.1,2.1H21.3a2.106,2.106,0,0,0,2.1-2.1V5.7A2.106,2.106,0,0,0,21.3,3.6Zm0,16.8H6.6V8.851H21.3Z" transform="translate(-4 -1)" fill="none" stroke="#455560" stroke-width="1"/>
</svg>
