<svg xmlns="http://www.w3.org/2000/svg" width="18.29" height="18.29" viewBox="0 0 18.29 18.29">
  <g id="Calendar" transform="translate(-2 -2)">
    <path id="Path_2215" data-name="Path 2215" d="M18.766,3.829H17.242v-.61a1.219,1.219,0,0,0-2.439,0v.61H12.364v-.61a1.219,1.219,0,1,0-2.439,0v.61H7.487v-.61a1.219,1.219,0,0,0-2.439,0v.61H3.524A1.524,1.524,0,0,0,2,5.353V17.547a1.524,1.524,0,0,0,1.524,1.524H12.06a.3.3,0,1,0,0-.61H3.524a.917.917,0,0,1-.915-.915V8.1H19.68v5.182a.3.3,0,1,0,.61,0V5.353a1.524,1.524,0,0,0-1.524-1.524Zm-3.353-.61a.61.61,0,1,1,1.219,0V5.048a.61.61,0,1,1-1.219,0Zm-4.877,0a.61.61,0,1,1,1.219,0V5.048a.61.61,0,1,1-1.219,0Zm-4.877,0a.61.61,0,1,1,1.219,0V5.048a.61.61,0,0,1-1.219,0ZM19.68,7.487H2.61V5.353a.917.917,0,0,1,.915-.915H5.048v.61a1.219,1.219,0,0,0,2.439,0v-.61H9.926v.61a1.219,1.219,0,1,0,2.439,0v-.61H14.8v.61a1.219,1.219,0,0,0,2.439,0v-.61h1.524a.917.917,0,0,1,.915.915Z" transform="translate(0)" fill="#0f243e"/>
    <path id="Path_2216" data-name="Path 2216" d="M24.439,27.61a.61.61,0,0,0-.61-.61H22.61a.61.61,0,0,0-.61.61v.915a.61.61,0,0,0,.61.61h1.219a.61.61,0,0,0,.61-.61Zm-1.829.915V27.61h1.219v.915Z" transform="translate(-13.903 -17.379)" fill="#0f243e"/>
    <path id="Path_2217" data-name="Path 2217" d="M12.439,27.61a.61.61,0,0,0-.61-.61H10.61a.61.61,0,0,0-.61.61v.915a.61.61,0,0,0,.61.61h1.219a.61.61,0,0,0,.61-.61Zm-1.829.915V27.61h1.219v.915Z" transform="translate(-5.561 -17.379)" fill="#0f243e"/>
    <path id="Path_2218" data-name="Path 2218" d="M47.829,29.134a.61.61,0,0,0,.61-.61V27.61a.61.61,0,0,0-.61-.61H46.61a.61.61,0,0,0-.61.61v.915a.61.61,0,0,0,.61.61ZM46.61,27.61h1.219v.915H46.61Z" transform="translate(-30.587 -17.379)" fill="#0f243e"/>
    <path id="Path_2219" data-name="Path 2219" d="M24.439,36.61a.61.61,0,0,0-.61-.61H22.61a.61.61,0,0,0-.61.61v.915a.61.61,0,0,0,.61.61h1.219a.61.61,0,0,0,.61-.61Zm-1.829.915V36.61h1.219v.915Z" transform="translate(-13.903 -23.636)" fill="#0f243e"/>
    <path id="Path_2220" data-name="Path 2220" d="M12.439,36.61a.61.61,0,0,0-.61-.61H10.61a.61.61,0,0,0-.61.61v.915a.61.61,0,0,0,.61.61h1.219a.61.61,0,0,0,.61-.61Zm-1.829.915V36.61h1.219v.915Z" transform="translate(-5.561 -23.636)" fill="#0f243e"/>
    <path id="Path_2221" data-name="Path 2221" d="M23.829,45H22.61a.61.61,0,0,0-.61.61v.915a.61.61,0,0,0,.61.61h1.219a.61.61,0,0,0,.61-.61V45.61A.61.61,0,0,0,23.829,45ZM22.61,46.524V45.61h1.219v.915Z" transform="translate(-13.903 -29.892)" fill="#0f243e"/>
    <path id="Path_2222" data-name="Path 2222" d="M34.61,29.134h1.219a.61.61,0,0,0,.61-.61V27.61a.61.61,0,0,0-.61-.61H34.61a.61.61,0,0,0-.61.61v.915A.61.61,0,0,0,34.61,29.134Zm0-1.524h1.219v.915H34.61Z" transform="translate(-22.245 -17.379)" fill="#0f243e"/>
    <path id="Path_2223" data-name="Path 2223" d="M34,37.524a.61.61,0,0,0,.61.61.3.3,0,0,0,0-.61V36.61h1.219a.3.3,0,1,0,0-.61H34.61a.61.61,0,0,0-.61.61Z" transform="translate(-22.245 -23.636)" fill="#0f243e"/>
    <path id="Path_2224" data-name="Path 2224" d="M11.829,45H10.61a.61.61,0,0,0-.61.61v.915a.61.61,0,0,0,.61.61h1.219a.61.61,0,0,0,.61-.61V45.61A.61.61,0,0,0,11.829,45ZM10.61,46.524V45.61h1.219v.915Z" transform="translate(-5.561 -29.892)" fill="#0f243e"/>
    <path id="Path_2225" data-name="Path 2225" d="M39.963,36a3.963,3.963,0,1,0,3.963,3.963A3.963,3.963,0,0,0,39.963,36Zm0,7.316a3.353,3.353,0,1,1,3.353-3.353,3.353,3.353,0,0,1-3.353,3.353Z" transform="translate(-23.636 -23.636)" fill="#0f243e"/>
    <path id="Path_2226" data-name="Path 2226" d="M45.727,44.6l-2.371,2.371L42.278,45.9a.3.3,0,1,0-.431.431l1.293,1.293a.3.3,0,0,0,.431,0l2.587-2.587a.3.3,0,1,0-.431-.431Z" transform="translate(-27.638 -29.555)" fill="#0f243e"/>
  </g>
</svg>
