<svg id="flag_1_" data-name="flag (1)" xmlns="http://www.w3.org/2000/svg" width="35.568" height="35.568" viewBox="0 0 35.568 35.568">
  <path id="Path_11" data-name="Path 11" d="M91.389,320.695a.695.695,0,1,1-.695-.695A.695.695,0,0,1,91.389,320.695Zm0,0" transform="translate(-83.748 -297.77)" fill="#604bba"/>
  <path id="Path_12" data-name="Path 12" d="M.695,127.232a.695.695,0,0,0,0,1.389h30.01a.695.695,0,0,0,0-1.389H25.842v-.695a2.458,2.458,0,0,0-2.5-2.084H21.257V108.336h5.974v2.084a.7.7,0,0,0,.695.695h6.947a.695.695,0,0,0,.542-1.129l-2.432-3.04,2.432-3.04a.695.695,0,0,0-.542-1.129H28.621v-2.084a.7.7,0,0,0-.695-.695H20.563a.7.7,0,0,0-.695.695v23.758h-2.5a2.086,2.086,0,0,0-2.084,2.084v.695H11.115V116.673H13.2a.7.7,0,0,0,.695-.695v-7.642a6.947,6.947,0,0,0-13.894,0v7.642a.7.7,0,0,0,.695.695H2.779v10.559Zm32.733-23.064-1.876,2.345a.694.694,0,0,0,0,.868l1.876,2.345H28.621v-5.557Zm-12.171-2.779h5.974v5.557H21.257Zm-4.585,25.148a.7.7,0,0,1,.695-.695h5.974c.5,0,1.111.427,1.111.695v.695h-7.78ZM1.389,115.283v-6.947a5.557,5.557,0,1,1,11.115,0v6.947H10.42a.7.7,0,0,0-.695.695v11.254H7.642v-8.475a.695.695,0,1,0-1.389,0v8.475H4.168V115.978a.7.7,0,0,0-.695-.695Zm0,0" transform="translate(0 -93.053)" fill="#604bba"/>
  <path id="Path_13" data-name="Path 13" d="M48.336,4.168a4.168,4.168,0,1,0-4.168,4.168A4.173,4.173,0,0,0,48.336,4.168ZM44.168,6.947a2.779,2.779,0,1,1,2.779-2.779A2.782,2.782,0,0,1,44.168,6.947Zm0,0" transform="translate(-37.221)" fill="#604bba"/>
</svg>
