<svg xmlns="http://www.w3.org/2000/svg" width="36.404" height="26.848" viewBox="0 0 36.404 26.848">
  <g id="identification" transform="translate(0 5.25)">
    <path id="Path_14" data-name="Path 14" d="M118.546,89.592a3.921,3.921,0,1,0-3.921-3.921A3.921,3.921,0,0,0,118.546,89.592Zm0-6.318a2.4,2.4,0,1,1-2.4,2.4A2.4,2.4,0,0,1,118.546,83.274Zm0,0" transform="translate(-107.67 -81.721)" fill="#348d50"/>
    <path id="Path_15" data-name="Path 15" d="M86.022,234.872a5.885,5.885,0,0,0-4.262,1.782A6.29,6.29,0,0,0,80,241.107a.761.761,0,0,0,.758.758H91.285a.761.761,0,0,0,.758-.758,6.29,6.29,0,0,0-1.76-4.452A5.884,5.884,0,0,0,86.022,234.872Zm-4.452,5.476a4.64,4.64,0,0,1,1.274-2.632,4.468,4.468,0,0,1,6.356,0,4.661,4.661,0,0,1,1.274,2.632Zm0,0" transform="translate(-75.146 -225.553)" fill="#348d50"/>
    <path id="Path_16" data-name="Path 16" d="M32.612-5.25H3.792A3.794,3.794,0,0,0,0-1.458V17.806A3.794,3.794,0,0,0,3.792,21.6h28.82A3.794,3.794,0,0,0,36.4,17.806V-1.458A3.794,3.794,0,0,0,32.612-5.25Zm2.275,23.056a2.282,2.282,0,0,1-2.275,2.275H3.792a2.282,2.282,0,0,1-2.275-2.275V-1.458A2.282,2.282,0,0,1,3.792-3.733h28.82a2.282,2.282,0,0,1,2.275,2.275Zm0,0" fill="#348d50"/>
    <path id="Path_17" data-name="Path 17" d="M358.219,203.5h-8.836a.758.758,0,0,0,0,1.517h8.836a.758.758,0,0,0,0-1.517Zm0,0" transform="translate(-327.473 -196.084)" fill="#348d50"/>
    <path id="Path_18" data-name="Path 18" d="M358.219,283.5h-8.836a.758.758,0,0,0,0,1.517h8.836a.758.758,0,0,0,0-1.517Zm0,0" transform="translate(-327.473 -271.23)" fill="#348d50"/>
    <path id="Path_19" data-name="Path 19" d="M358.219,123.5h-8.836a.758.758,0,0,0,0,1.517h8.836a.758.758,0,0,0,0-1.517Zm0,0" transform="translate(-327.473 -120.938)" fill="#348d50"/>
  </g>
</svg>
