<svg xmlns="http://www.w3.org/2000/svg" width="19.017" height="20.341" viewBox="0 0 19.017 20.341">
  <g id="icon" transform="translate(-11.871 0.25)">
    <path id="Path_3" data-name="Path 3" d="M79.1,224.269a5.254,5.254,0,0,1-1.781-.437,4.591,4.591,0,0,0-1.944-.423l-1.613.143V217.3l.879-.078a2.768,2.768,0,0,1,1.444.369,2.478,2.478,0,0,0,1.251.338l2.88-.523a1.819,1.819,0,0,1,1.949.963l3.141-1.46a2.624,2.624,0,0,1,3.325,1.33.767.767,0,0,1-.262,1.039l-1.218.762c-3.512,2.2-6.545,4.1-7.844,4.214C79.238,224.266,79.169,224.269,79.1,224.269Zm-3.524-1.31a5.513,5.513,0,0,1,1.9.459,4.3,4.3,0,0,0,1.8.4c1.194-.1,4.329-2.069,7.648-4.149l1.218-.762a.325.325,0,0,0,.118-.437,2.2,2.2,0,0,0-2.764-1.157l-3.5,1.628-.1-.175a1.465,1.465,0,0,0-1.594-.922l-2.9.525A2.842,2.842,0,0,1,75.9,218a2.412,2.412,0,0,0-1.219-.33l-.478.042v5.362l1.133-.1C75.416,222.962,75.5,222.959,75.576,222.959Z" transform="translate(-58.148 -204.428)" fill="none" stroke="#455560" stroke-width="0.5"/>
    <path id="Path_4" data-name="Path 4" d="M150.022,250a.221.221,0,0,1-.043-.437,13.541,13.541,0,0,0,3.9-1.585l-.262-.456a.22.22,0,0,1,.382-.22l.372.648a.22.22,0,0,1-.081.3A14.306,14.306,0,0,1,150.065,250,.208.208,0,0,1,150.022,250Z" transform="translate(-129.878 -233.188)" fill="none" stroke="#455560" stroke-width="0.5"/>
    <path id="Path_5" data-name="Path 5" d="M15.319,215.457H12.858a.738.738,0,0,1-.737-.737V208.1a.737.737,0,0,1,.737-.737h2.461a.737.737,0,0,1,.737.737v6.615A.738.738,0,0,1,15.319,215.457Zm-2.461-7.648a.3.3,0,0,0-.3.3v6.616a.3.3,0,0,0,.3.3h2.461a.3.3,0,0,0,.3-.3V208.1a.3.3,0,0,0-.3-.3H12.858Z" transform="translate(0 -195.616)" fill="none" stroke="#455560" stroke-width="0.5"/>
    <path id="Path_6" data-name="Path 6" d="M85.374,10.775a5.388,5.388,0,1,1,5.388-5.388A5.394,5.394,0,0,1,85.374,10.775Zm0-10.334A4.947,4.947,0,1,0,90.32,5.388,4.952,4.952,0,0,0,85.374.441Z" transform="translate(-64.019)" fill="none" stroke="#455560" stroke-width="0.5"/>
    <path id="Path_7" data-name="Path 7" d="M152.321,42.163h-1.175a.372.372,0,0,1-.372-.372v-.912a.373.373,0,0,1,.372-.372h1.175a.372.372,0,0,1,.372.372.22.22,0,0,0,.441,0,.814.814,0,0,0-.813-.813h-.367v-.513a.22.22,0,1,0-.441,0v.513h-.367a.814.814,0,0,0-.813.813v.912a.814.814,0,0,0,.813.813h1.175a.372.372,0,0,1,.372.372v.912a.372.372,0,0,1-.372.372h-1.175a.372.372,0,0,1-.372-.372.22.22,0,1,0-.441,0,.814.814,0,0,0,.813.813h.367v.578a.22.22,0,1,0,.441,0V44.7h.367a.814.814,0,0,0,.813-.813v-.912A.814.814,0,0,0,152.321,42.163Z" transform="translate(-130.379 -37.103)" fill="none" stroke="#455560" stroke-width="0.5"/>
  </g>
</svg>
