<svg xmlns="http://www.w3.org/2000/svg" width="18.362" height="15.301" viewBox="0 0 18.362 15.301">
  <g id="briefcase_1_" data-name="briefcase (1)" transform="translate(0 -42.666)">
    <g id="Group_2838" data-name="Group 2838" transform="translate(0 42.666)">
      <g id="Group_2837" data-name="Group 2837" transform="translate(0 0)">
        <path id="Path_2273" data-name="Path 2273" d="M16.832,44.961H13.006V44.2a1.532,1.532,0,0,0-1.53-1.53H6.886a1.532,1.532,0,0,0-1.53,1.53v.765H1.53A1.532,1.532,0,0,0,0,46.491v9.946a1.532,1.532,0,0,0,1.53,1.53h15.3a1.532,1.532,0,0,0,1.53-1.53V46.491A1.532,1.532,0,0,0,16.832,44.961ZM6.121,44.2a.766.766,0,0,1,.765-.765h4.59a.766.766,0,0,1,.765.765v.765H6.121Zm-5.356,2.3a.766.766,0,0,1,.765-.765H3.022A2.668,2.668,0,0,1,.765,47.983V46.491ZM1.53,57.2a.766.766,0,0,1-.765-.765V54.946A2.668,2.668,0,0,1,3.022,57.2ZM17.6,56.437a.766.766,0,0,1-.765.765H15.34A2.668,2.668,0,0,1,17.6,54.946Zm0-2.257A3.425,3.425,0,0,0,14.575,57.2H3.787A3.425,3.425,0,0,0,.765,54.181V48.748a3.425,3.425,0,0,0,3.022-3.022H14.575A3.425,3.425,0,0,0,17.6,48.748Zm0-6.2a2.668,2.668,0,0,1-2.257-2.257h1.491a.766.766,0,0,1,.765.765Z" transform="translate(0 -42.666)" fill="#455560"/>
        <path id="Path_2274" data-name="Path 2274" d="M214.672,214.863h1.339a.383.383,0,1,0,0-.765h-.765v-.383a.383.383,0,0,0-.765,0v.4a1.336,1.336,0,0,0,.191,2.658h.383a.574.574,0,1,1,0,1.148h-1.339a.383.383,0,0,0,0,.765h.765v.383a.383.383,0,1,0,.765,0v-.4a1.336,1.336,0,0,0-.191-2.658h-.383a.574.574,0,0,1,0-1.148Z" transform="translate(-205.682 -207.212)" fill="#455560"/>
      </g>
    </g>
  </g>
</svg>
