<svg id="flag_1_" data-name="flag (1)" xmlns="http://www.w3.org/2000/svg" width="17.923" height="17.923" viewBox="0 0 17.923 17.923">
  <path id="Path_11" data-name="Path 11" d="M90.7,320.35a.35.35,0,1,1-.35-.35A.35.35,0,0,1,90.7,320.35Zm0,0" transform="translate(-86.849 -308.798)" fill="#10284b"/>
  <path id="Path_12" data-name="Path 12" d="M.35,113.722a.35.35,0,1,0,0,.7H15.472a.35.35,0,1,0,0-.7h-2.45v-.35a1.238,1.238,0,0,0-1.26-1.05h-1.05V104.2h3.01v1.05a.35.35,0,0,0,.35.35h3.5a.35.35,0,0,0,.273-.569L16.621,103.5l1.225-1.532a.35.35,0,0,0-.273-.569h-3.15v-1.05a.35.35,0,0,0-.35-.35H10.362a.35.35,0,0,0-.35.35v11.972H8.751a1.051,1.051,0,0,0-1.05,1.05v.35H5.6V108.4h1.05a.35.35,0,0,0,.35-.35V104.2a3.5,3.5,0,1,0-7,0v3.851a.35.35,0,0,0,.35.35H1.4v5.321ZM16.845,102.1l-.945,1.182a.35.35,0,0,0,0,.437l.945,1.182H14.422v-2.8Zm-6.133-1.4h3.01v2.8h-3.01ZM8.4,113.372a.35.35,0,0,1,.35-.35h3.01c.254,0,.56.215.56.35v.35H8.4ZM.7,107.7v-3.5a2.8,2.8,0,1,1,5.6,0v3.5H5.251a.35.35,0,0,0-.35.35v5.671H3.851v-4.271a.35.35,0,1,0-.7,0v4.271H2.1v-5.671a.35.35,0,0,0-.35-.35Zm0,0" transform="translate(0 -96.5)" fill="#10284b"/>
  <path id="Path_13" data-name="Path 13" d="M44.2,2.1a2.1,2.1,0,1,0-2.1,2.1A2.1,2.1,0,0,0,44.2,2.1ZM42.1,3.5a1.4,1.4,0,1,1,1.4-1.4A1.4,1.4,0,0,1,42.1,3.5Zm0,0" transform="translate(-38.6)" fill="#10284b"/>
</svg>
