<svg xmlns="http://www.w3.org/2000/svg" width="312" height="88.508" viewBox="0 0 312 88.508">
  <g id="Group_2836" data-name="Group 2836" transform="translate(-0.559 0.526)">
    <path id="Path_2266" data-name="Path 2266" d="M.559,43.728V81.14c4.388,7.16,21.478,5.774,25.4,4.388s9.468-3.234,13.856-3,133.946,3,147.8,3,24.018-12.7,34.18-14.318,71.59-12.47,73.438-12.47,1.154,2.078,4.158,3.014,3-1.4,4.386-1.506,2.08,1.262,4.62,1.494,3-2.542,4.156-3V28.716c-1.154-.462-1.616-3.232-4.156-3s-3.234,1.6-4.62,1.5S302.4,24.764,299.4,25.7s-2.31,3.014-4.158,3.014S231.961,17.862,221.8,16.246,201.477,1.928,187.621,1.928,44.207,4.7,39.819,4.93s-9.93-1.616-13.856-3S4.947-.844.559,6.316Z" transform="translate(0 1.338)" fill="#082033"/>
    <path id="Path_2267" data-name="Path 2267" d="M.559,22.27V59.682c4.388,7.16,21.478,5.774,25.4,4.388s9.468-3.234,13.856-3,133.946,3,147.8,3,24.018-12.7,34.18-14.318,71.59-12.47,73.438-12.47,1.154,2.078,4.158,3.014,3-1.4,4.386-1.506,2.08,1.262,4.62,1.494,3-2.542,4.156-3V22.27Z" transform="translate(0 22.796)" fill="#10284b"/>
    <path id="Path_2268" data-name="Path 2268" d="M178.626,20.053v30.43l-63.02,10.779V9.273Z" transform="translate(115.047 9.799)" fill="#4b995a"/>
    <path id="Path_2269" data-name="Path 2269" d="M178.626,22.27V37.485l-63.02,10.779V22.27Z" transform="translate(115.047 22.796)" fill="#3d8445"/>
    <path id="Path_2270" data-name="Path 2270" d="M132.767,1.506V84.561L36.134,82.6V3.471Z" transform="translate(35.575 2.032)" fill="#082033"/>
    <path id="Path_2271" data-name="Path 2271" d="M132.767,22.319V63.847L36.134,61.882V22.27Z" transform="translate(35.575 22.796)" fill="#10284b"/>
    <g id="Group_2835" data-name="Group 2835" transform="translate(47.532 -0.526)">
      <text id="CRM" transform="translate(0 67)" fill="#fff" font-size="64" font-family="RobotoSlab-Bold, Roboto Slab" font-weight="700"><tspan x="0" y="0">CRM</tspan></text>
    </g>
  </g>
</svg>
