<svg xmlns="http://www.w3.org/2000/svg" width="17.528" height="16.047" viewBox="0 0 17.528 16.047">
  <g id="log-out" transform="translate(0.001 1.106)">
    <path id="Path_2259" data-name="Path 2259" d="M203.461-1.106h-6.352A1.913,1.913,0,0,0,195.211.8V2.49a.473.473,0,0,0,.947,0V.8a.965.965,0,0,1,.951-.962h6.352a.949.949,0,0,1,.933.962v12.24a.939.939,0,0,1-.928.951h-6.357a.955.955,0,0,1-.951-.951V11.391a.473.473,0,1,0-.947,0v1.652a1.9,1.9,0,0,0,1.9,1.9h6.352a1.887,1.887,0,0,0,1.88-1.894V.8a1.9,1.9,0,0,0-1.88-1.909Zm0,0" transform="translate(-187.813)" fill="#ea4335"/>
    <path id="Path_2260" data-name="Path 2260" d="M1.624,108.385h11.2a.473.473,0,1,0,0-.947H1.519l2.429-2.807a.479.479,0,0,0-.047-.672.473.473,0,0,0-.668.045h0L.172,107.53a.472.472,0,0,0,.022.746l3.061,3.061a.473.473,0,0,0,.669,0,.463.463,0,0,0,.006-.654l-.006-.006Zm0,0" transform="translate(0 -100.971)" fill="#ea4335"/>
  </g>
</svg>
