<svg xmlns="http://www.w3.org/2000/svg" width="18.499" height="18.857" viewBox="0 0 18.499 18.857">
  <path id="Icon_ionic-logo-google" data-name="Icon ionic-logo-google" d="M20.218,9.666l-.1-.4H11.35v3.713h5.241a5.246,5.246,0,0,1-5.133,3.945,6.138,6.138,0,0,1-4.131-1.646,5.9,5.9,0,0,1-1.759-4.162A6.082,6.082,0,0,1,7.3,6.955,5.876,5.876,0,0,1,11.4,5.35a5.352,5.352,0,0,1,3.491,1.36L17.53,4.085a9.337,9.337,0,0,0-6.216-2.394h0a9.61,9.61,0,0,0-6.8,2.766,9.571,9.571,0,0,0-2.684,6.661,9.475,9.475,0,0,0,2.58,6.552,9.842,9.842,0,0,0,7.1,2.879,8.753,8.753,0,0,0,6.375-2.68,9.413,9.413,0,0,0,2.448-6.52A10.857,10.857,0,0,0,20.218,9.666Z" transform="translate(-1.828 -1.691)" fill="#ea4335"/>
</svg>
