<svg xmlns="http://www.w3.org/2000/svg" width="22.751" height="11.376" viewBox="0 0 22.751 11.376">
  <g id="menu_3_" data-name="menu (3)" transform="translate(0 -96.243)">
    <g id="Menu_1_" transform="translate(0 96.243)">
      <path id="Path_2" data-name="Path 2" d="M.711,97.665H22.04a.711.711,0,1,0,0-1.422H.711a.711.711,0,1,0,0,1.422Z" transform="translate(0 -96.243)" fill="#0f243e"/>
      <path id="Path_3" data-name="Path 3" d="M22.04,180.455H.711a.711.711,0,0,0,0,1.422H22.04a.711.711,0,0,0,0-1.422Z" transform="translate(0 -175.478)" fill="#0f243e"/>
      <path id="Path_4" data-name="Path 4" d="M135.234,264.667h-14.22a.711.711,0,0,0,0,1.422h14.22a.711.711,0,1,0,0-1.422Z" transform="translate(-113.193 -254.713)" fill="#0f243e"/>
    </g>
  </g>
</svg>
