<svg xmlns="http://www.w3.org/2000/svg" width="18.792" height="20" viewBox="0 0 18.792 20">
  <g id="knowledge" transform="translate(-25.005 -40)">
    <path id="Path_2292" data-name="Path 2292" d="M272.027,98.346a5.767,5.767,0,0,0,.679-8.758A5.452,5.452,0,0,0,268.772,88a5.643,5.643,0,0,0-5.476,5.694,5.732,5.732,0,0,0,2.381,4.654.3.3,0,0,1,.119.245v.742a1.666,1.666,0,0,0,.278,3.014V103a1.669,1.669,0,0,0,1.667,1.667h2.222A1.669,1.669,0,0,0,271.629,103v-.651a1.666,1.666,0,0,0,.278-3.014v-.741A.3.3,0,0,1,272.027,98.346Zm-7.62-4.655a4.528,4.528,0,0,1,4.381-4.581h.063a4.354,4.354,0,0,1,3.074,1.271,4.656,4.656,0,0,1-.544,7.062,1.413,1.413,0,0,0-.586,1.15v.517h-3.889v-.517a1.41,1.41,0,0,0-.585-1.149A4.618,4.618,0,0,1,264.407,93.691Zm5.556,9.863h-2.222a.556.556,0,0,1-.556-.556v-.556h3.333V103A.556.556,0,0,1,269.963,103.553Zm1.111-2.222h-4.444a.556.556,0,0,1,0-1.111h4.444a.556.556,0,1,1,0,1.111Z" transform="translate(-234.451 -44.664)" fill="#455560"/>
    <path id="Path_2293" data-name="Path 2293" d="M351.639,124.205a2.512,2.512,0,0,1,1.447,1.641.556.556,0,1,0,1.069-.3,3.631,3.631,0,0,0-2.1-2.368.556.556,0,0,0-.421,1.028Z" transform="translate(-316.338 -77.362)" fill="#455560"/>
    <path id="Path_2294" data-name="Path 2294" d="M336.411,41.667V40.556a.556.556,0,1,0-1.111,0v1.111a.556.556,0,1,0,1.111,0Z" transform="translate(-301.454 0)" fill="#455560"/>
    <path id="Path_2295" data-name="Path 2295" d="M284.239,53.19a.556.556,0,0,0,.507-.782l-.452-1.015a.556.556,0,1,0-1.015.452l.452,1.015A.556.556,0,0,0,284.239,53.19Z" transform="translate(-253.001 -10.296)" fill="#455560"/>
    <path id="Path_2296" data-name="Path 2296" d="M241.556,84.206a.556.556,0,0,0,.372-.968l-.826-.743a.556.556,0,0,0-.743.826l.826.743A.554.554,0,0,0,241.556,84.206Z" transform="translate(-212.935 -39.41)" fill="#455560"/>
    <path id="Path_2297" data-name="Path 2297" d="M215.7,129.515a.556.556,0,0,0-.357-.7l-1.057-.343a.556.556,0,1,0-.343,1.057l1.057.343a.555.555,0,0,0,.7-.357Z" transform="translate(-188.17 -82.302)" fill="#455560"/>
    <path id="Path_2298" data-name="Path 2298" d="M209.6,179.709l-1.1.116a.556.556,0,1,0,.116,1.105l1.105-.116a.556.556,0,0,0-.116-1.105Z" transform="translate(-182.994 -130.005)" fill="#455560"/>
    <path id="Path_2299" data-name="Path 2299" d="M447.182,180.815l1.1.116a.556.556,0,1,0,.116-1.105l-1.105-.116a.556.556,0,0,0-.116,1.105Z" transform="translate(-405.104 -130.005)" fill="#455560"/>
    <path id="Path_2300" data-name="Path 2300" d="M442.366,129.9a.553.553,0,0,0,.172-.027l1.057-.343a.556.556,0,1,0-.343-1.057l-1.057.343a.556.556,0,0,0,.172,1.084Z" transform="translate(-400.568 -82.302)" fill="#455560"/>
    <path id="Path_2301" data-name="Path 2301" d="M419.459,84.065l.826-.743a.556.556,0,0,0-.743-.826l-.826.743a.556.556,0,0,0,.744.826Z" transform="translate(-378.906 -39.413)" fill="#455560"/>
    <path id="Path_2302" data-name="Path 2302" d="M381.41,53.19a.556.556,0,0,0,.508-.33l.452-1.015a.556.556,0,1,0-1.015-.452l-.452,1.015a.556.556,0,0,0,.507.782Z" transform="translate(-343.846 -10.296)" fill="#455560"/>
  </g>
</svg>
