<svg xmlns="http://www.w3.org/2000/svg" width="17.88" height="22.359" viewBox="0 0 17.88 22.359">
  <g id="opportunities" transform="translate(-60 -10.9)">
    <path id="Path_20" data-name="Path 20" d="M227.466,177.1h0a.274.274,0,0,0,0-.547l-1.619-.017-.649-.007h0a.274.274,0,1,0,0,.547l.649.007h0a.7.7,0,0,1,.639.433l-1.293-.014a.274.274,0,1,0-.006.547l1.292.014a.7.7,0,0,1-.64.419h-.008l-.649-.007a.274.274,0,0,0-.193.471l1.606,1.55a.274.274,0,1,0,.38-.394l-1.111-1.073a1.247,1.247,0,0,0,1.188-.96l.4,0h0a.274.274,0,1,0,0-.547l-.4,0a1.231,1.231,0,0,0-.18-.428Z" transform="translate(-157.385 -158.075)" fill="#0f243e"/>
    <path id="Path_21" data-name="Path 21" d="M132.545,89.5a6.182,6.182,0,1,0-8.516,8.963,3.9,3.9,0,0,1,1.249,2.873v2.951a1.184,1.184,0,0,0,1.183,1.183h1.477v.907a.274.274,0,1,0,.547,0v-.907h1.477a1.184,1.184,0,0,0,1.183-1.183v-2.955a3.986,3.986,0,0,1,1.282-2.9,6.177,6.177,0,0,0,.118-8.932Zm-2.582,15.423h-3.5a.636.636,0,0,1-.636-.636v-.117h3.136a.274.274,0,1,0,0-.547h-3.136v-.753h.772a.274.274,0,1,0,0-.547h-.772v-.712H130.6v.712h-3.06a.274.274,0,1,0,0,.547h3.06v.753h-.7a.274.274,0,0,0,0,.547h.7v.117A.636.636,0,0,1,129.963,104.923Zm2.091-6.891a4.55,4.55,0,0,0-1.447,3.031h-4.79a4.446,4.446,0,0,0-1.417-3,5.637,5.637,0,0,1,3.812-9.79h.053a5.637,5.637,0,0,1,3.789,9.762Z" transform="translate(-59.273 -73.392)" fill="#0f243e"/>
    <path id="Path_22" data-name="Path 22" d="M174.547,135.128a3.911,3.911,0,0,0-.768,7.784q.2.019.391.019a3.911,3.911,0,0,0,.377-7.8Zm2.963,4.222a3.363,3.363,0,1,1-3.353-3.694q.167,0,.336.017A3.363,3.363,0,0,1,177.51,139.35Z" transform="translate(-105.223 -118.544)" fill="#0f243e"/>
    <path id="Path_23" data-name="Path 23" d="M254.734,11.174v1.819a.274.274,0,0,0,.547,0V11.174a.274.274,0,1,0-.547,0Z" transform="translate(-185.852)" fill="#0f243e"/>
    <path id="Path_24" data-name="Path 24" d="M402.218,200.9H400.4a.274.274,0,0,0,0,.547h1.819a.274.274,0,1,0,0-.547Z" transform="translate(-324.613 -181.334)" fill="#0f243e"/>
    <path id="Path_25" data-name="Path 25" d="M62.092,200.9H60.274a.274.274,0,0,0,0,.547h1.819a.274.274,0,0,0,0-.547Z" transform="translate(0 -181.334)" fill="#0f243e"/>
    <path id="Path_26" data-name="Path 26" d="M359.542,62.6l1.419-1.419a.274.274,0,1,0-.387-.387l-1.419,1.419a.274.274,0,1,0,.387.387Z" transform="translate(-285.433 -47.537)" fill="#0f243e"/>
    <path id="Path_27" data-name="Path 27" d="M109.891,60.789a.274.274,0,0,0,0,.387L111.31,62.6a.274.274,0,0,0,.387-.387l-1.419-1.419A.274.274,0,0,0,109.891,60.789Z" transform="translate(-47.539 -47.537)" fill="#0f243e"/>
  </g>
</svg>
