<svg xmlns="http://www.w3.org/2000/svg" width="35.912" height="44.909" viewBox="0 0 35.912 44.909">
  <g id="opportunities" transform="translate(-60 -10.9)">
    <path id="Path_20" data-name="Path 20" d="M230.048,177.678h.006a.55.55,0,0,0,.006-1.1l-3.252-.035-1.3-.014H225.5a.55.55,0,0,0-.006,1.1l1.3.014h0a1.406,1.406,0,0,1,1.284.869l-2.6-.027a.55.55,0,1,0-.012,1.1l2.6.027a1.407,1.407,0,0,1-1.286.841h-.015l-1.3-.014a.55.55,0,0,0-.388.945L228.3,184.5a.55.55,0,1,0,.764-.791l-2.232-2.155a2.5,2.5,0,0,0,2.387-1.928l.809.009h.006a.55.55,0,1,0,.006-1.1l-.809-.009a2.473,2.473,0,0,0-.361-.859Z" transform="translate(-149.799 -150.456)" fill="#ff562d"/>
    <path id="Path_21" data-name="Path 21" d="M143.074,91.216a12.416,12.416,0,1,0-17.1,18,7.843,7.843,0,0,1,2.51,5.771v5.927a2.379,2.379,0,0,0,2.376,2.376h2.967v1.821a.55.55,0,0,0,1.1,0v-1.821h2.966a2.379,2.379,0,0,0,2.376-2.376v-5.935a8.007,8.007,0,0,1,2.574-5.824,12.406,12.406,0,0,0,.236-17.941Zm-5.186,30.977h-7.032a1.278,1.278,0,0,1-1.277-1.277v-.236h6.3a.55.55,0,1,0,0-1.1h-6.3v-1.513h1.55a.55.55,0,1,0,0-1.1h-1.55v-1.43h9.585v1.43h-6.145a.55.55,0,1,0,0,1.1h6.145v1.513h-1.4a.55.55,0,0,0,0,1.1h1.4v.236A1.278,1.278,0,0,1,137.888,122.193Zm4.2-13.841a9.14,9.14,0,0,0-2.906,6.088h-9.62a8.931,8.931,0,0,0-2.847-6.032,11.322,11.322,0,0,1,7.656-19.663h.106a11.322,11.322,0,0,1,7.611,19.607Z" transform="translate(-56.416 -69.855)" fill="#ff562d"/>
    <path id="Path_22" data-name="Path 22" d="M178.878,135.147a7.855,7.855,0,1,0-1.542,15.634q.394.039.785.039a7.855,7.855,0,0,0,.756-15.673Zm5.952,8.48a6.755,6.755,0,1,1-6.736-7.419q.336,0,.675.033A6.756,6.756,0,0,1,184.831,143.627Z" transform="translate(-100.151 -112.83)" fill="#ff562d"/>
    <path id="Path_23" data-name="Path 23" d="M254.734,11.45V15.1a.55.55,0,1,0,1.1,0V11.45a.55.55,0,1,0-1.1,0Z" transform="translate(-176.894)" fill="#ff562d"/>
    <path id="Path_24" data-name="Path 24" d="M404.329,200.9h-3.653a.55.55,0,1,0,0,1.1h3.653a.55.55,0,1,0,0-1.1Z" transform="translate(-308.966 -172.593)" fill="#ff562d"/>
    <path id="Path_25" data-name="Path 25" d="M64.2,200.9H60.55a.55.55,0,1,0,0,1.1H64.2a.55.55,0,1,0,0-1.1Z" transform="translate(0 -172.593)" fill="#ff562d"/>
    <path id="Path_26" data-name="Path 26" d="M360.013,64.5l2.851-2.85a.55.55,0,0,0-.777-.777l-2.851,2.85a.55.55,0,0,0,.777.777Z" transform="translate(-271.675 -45.246)" fill="#ff562d"/>
    <path id="Path_27" data-name="Path 27" d="M109.972,60.87a.55.55,0,0,0,0,.777l2.851,2.85a.55.55,0,0,0,.777-.777l-2.851-2.85A.55.55,0,0,0,109.972,60.87Z" transform="translate(-45.247 -45.246)" fill="#ff562d"/>
  </g>
</svg>
