<svg id="settings_1_" data-name="settings (1)" xmlns="http://www.w3.org/2000/svg" width="18.016" height="18.016" viewBox="0 0 18.016 18.016">
  <g id="Group_2815" data-name="Group 2815" transform="translate(0 6.005)">
    <g id="Group_2814" data-name="Group 2814">
      <path id="Path_2255" data-name="Path 2255" d="M11.11,164.5h-.33a.3.3,0,0,1-.278-.194c-.037-.1-.076-.19-.118-.283a.3.3,0,0,1,.06-.335l.235-.236a.9.9,0,0,0,0-1.273l-.849-.849a.9.9,0,0,0-1.273,0l-.235.235a.3.3,0,0,1-.335.06c-.093-.042-.187-.082-.283-.12a.3.3,0,0,1-.195-.279v-.33a.9.9,0,0,0-.9-.9H5.4a.9.9,0,0,0-.9.9v.33a.3.3,0,0,1-.194.278c-.1.037-.19.076-.283.118a.3.3,0,0,1-.335-.06l-.236-.235a.9.9,0,0,0-1.273,0l-.849.851a.9.9,0,0,0,0,1.273l.235.235a.3.3,0,0,1,.06.335c-.042.093-.082.187-.119.283a.3.3,0,0,1-.28.194H.9a.9.9,0,0,0-.9.9v1.2a.9.9,0,0,0,.9.9h.33a.3.3,0,0,1,.278.194c.037.1.076.19.118.283a.3.3,0,0,1-.06.335l-.235.236a.9.9,0,0,0,0,1.273l.849.849a.9.9,0,0,0,1.273,0l.235-.235a.3.3,0,0,1,.335-.06c.093.042.187.082.283.12a.3.3,0,0,1,.2.279v.33a.9.9,0,0,0,.9.9h1.2a.9.9,0,0,0,.9-.9v-.33A.3.3,0,0,1,7.7,170.5c.1-.037.19-.076.283-.118a.3.3,0,0,1,.335.06l.236.235a.9.9,0,0,0,1.273,0l.849-.849a.9.9,0,0,0,0-1.273l-.235-.235a.3.3,0,0,1-.06-.335c.042-.093.082-.187.12-.283a.3.3,0,0,1,.279-.195h.33a.9.9,0,0,0,.9-.9v-1.2A.9.9,0,0,0,11.11,164.5Zm.3,2.1a.3.3,0,0,1-.3.3h-.33a.9.9,0,0,0-.841.581q-.048.126-.1.248a.9.9,0,0,0,.18,1.008l.235.235a.3.3,0,0,1,0,.425h0l-.849.849a.3.3,0,0,1-.425,0l-.235-.235a.9.9,0,0,0-1.008-.18c-.081.037-.164.071-.248.1a.9.9,0,0,0-.58.84v.33a.3.3,0,0,1-.3.3H5.4a.3.3,0,0,1-.3-.3v-.33a.9.9,0,0,0-.581-.841q-.126-.048-.248-.1a.9.9,0,0,0-1.008.18l-.235.235a.3.3,0,0,1-.425,0h0l-.849-.848a.3.3,0,0,1,0-.425l.235-.235a.9.9,0,0,0,.18-1.008c-.037-.081-.071-.164-.1-.248a.9.9,0,0,0-.84-.581H.9a.3.3,0,0,1-.3-.3v-1.2a.3.3,0,0,1,.3-.3h.33a.9.9,0,0,0,.841-.581q.048-.126.1-.248a.9.9,0,0,0-.18-1.008l-.236-.235a.3.3,0,0,1,0-.425h0l.849-.849a.3.3,0,0,1,.425,0l.235.235a.9.9,0,0,0,1.008.18c.081-.037.164-.071.248-.1a.9.9,0,0,0,.582-.84v-.33a.3.3,0,0,1,.3-.3h1.2a.3.3,0,0,1,.3.3v.33a.9.9,0,0,0,.581.841q.126.048.248.1a.9.9,0,0,0,1.008-.18l.235-.235a.3.3,0,0,1,.425,0l.849.849a.3.3,0,0,1,0,.425l-.235.235a.9.9,0,0,0-.18,1.008c.037.081.071.164.1.248a.9.9,0,0,0,.84.58h.33a.3.3,0,0,1,.3.3v1.2Z" transform="translate(0 -160)" fill="#2c71ff"/>
    </g>
  </g>
  <g id="Group_2817" data-name="Group 2817" transform="translate(3.301 9.308)">
    <g id="Group_2816" data-name="Group 2816">
      <path id="Path_2256" data-name="Path 2256" d="M93.359,250.582c0-.072-.008-.144-.017-.215s-.021-.153-.037-.228c-.011-.049-.024-.1-.038-.146s-.036-.123-.057-.183c-.015-.042-.03-.083-.046-.124a2.673,2.673,0,0,0-.132-.281c0-.007-.006-.014-.01-.021a2.666,2.666,0,0,0-.27-.394l-.028-.031c-.041-.049-.084-.1-.129-.142-.023-.024-.048-.047-.073-.071l-.09-.082q-.055-.047-.111-.092l-.049-.037a2.683,2.683,0,0,0-1.61-.536c-.03,0-.06,0-.09.006-.064,0-.128.005-.193.012l-.1.012a2.752,2.752,0,0,0-.291.054,2.7,2.7,0,0,0,0,5.236l.015,0a2.871,2.871,0,0,0,.315.06c.07.009.14.01.21.014.047,0,.09.009.139.009.086,0,.174-.006.265-.015a.29.29,0,0,0,.03,0c.073-.008.147-.019.222-.034.03-.006.058-.013.087-.02.053-.012.105-.025.159-.041s.083-.027.124-.042l.126-.046c.043-.016.078-.035.117-.053s.1-.046.15-.073h0a3.554,3.554,0,0,0,.77-.556.944.944,0,0,0,.161-.2,3.205,3.205,0,0,0,.452-1.234c.008-.058.016-.116.02-.175s.007-.108.008-.162c0-.017,0-.033,0-.05C93.365,250.662,93.361,250.623,93.359,250.582Zm-.6.2c0,.025,0,.05,0,.074-.005.073-.015.145-.027.218a2.106,2.106,0,0,1-1.055,1.471c-.037.02-.074.038-.111.055l-.025.012a2.169,2.169,0,0,1-.548.166l-.04.006c-.038.005-.074.01-.111.013s-.1.007-.147.008h-.063a2.106,2.106,0,0,1-.213-.013l-.036,0a2.224,2.224,0,0,1-.245-.046,2.1,2.1,0,0,1,0-4.072h0a2.175,2.175,0,0,1,.528-.066,2.069,2.069,0,0,1,.257.017l.068.01c.065.01.129.023.192.039l.062.016a2.12,2.12,0,0,1,.458.193l.068.042c.047.03.093.06.139.094.024.018.049.035.072.054a2.168,2.168,0,0,1,.169.15c.021.022.041.045.062.068.035.038.068.076.1.116s.044.057.065.086.06.088.087.134l.045.075a2.063,2.063,0,0,1,.1.22c.012.03.022.06.033.09.02.055.036.111.051.168.008.03.016.057.022.086a2.117,2.117,0,0,1,.038.246c0,.022,0,.044,0,.066C92.762,250.64,92.763,250.709,92.76,250.779Z" transform="translate(-87.959 -248)" fill="#2c71ff"/>
    </g>
  </g>
  <g id="Group_2819" data-name="Group 2819" transform="translate(3.275)">
    <g id="Group_2818" data-name="Group 2818">
      <path id="Path_2257" data-name="Path 2257" d="M101.1,6.305h-.944a.293.293,0,0,1-.28-.2,6.253,6.253,0,0,0-.337-.814.294.294,0,0,1,.058-.339l.67-.67a.9.9,0,0,0,0-1.273L98.99,1.737a.9.9,0,0,0-1.273,0l-.669.669a.294.294,0,0,1-.339.058,6.238,6.238,0,0,0-.814-.339.293.293,0,0,1-.2-.28V.9a.9.9,0,0,0-.9-.9h-1.8a.9.9,0,0,0-.9.9v.944a.293.293,0,0,1-.2.28,6.257,6.257,0,0,0-.814.339.293.293,0,0,1-.339-.058l-.67-.67a.9.9,0,0,0-1.273,0L87.525,3.011a.9.9,0,0,0,0,1.274l.985.986a.3.3,0,0,0,.425-.424l-.985-.986a.3.3,0,0,1,0-.425l1.274-1.274a.3.3,0,0,1,.425,0l.671.67A.893.893,0,0,0,91.351,3a5.681,5.681,0,0,1,.736-.306.893.893,0,0,0,.607-.85V.9a.3.3,0,0,1,.3-.3h1.8a.3.3,0,0,1,.3.3v.944a.893.893,0,0,0,.607.849A5.662,5.662,0,0,1,96.439,3a.9.9,0,0,0,1.031-.17l.671-.669a.3.3,0,0,1,.425,0L99.84,3.436a.3.3,0,0,1,0,.424l-.67.671A.894.894,0,0,0,99,5.563a5.679,5.679,0,0,1,.306.736.893.893,0,0,0,.85.607h.944a.3.3,0,0,1,.3.3v1.8a.3.3,0,0,1-.3.3h-.944a.893.893,0,0,0-.849.607,5.658,5.658,0,0,1-.306.736.894.894,0,0,0,.17,1.031l.67.671a.3.3,0,0,1,0,.425l-1.275,1.274a.3.3,0,0,1-.424,0l-.987-.985a.3.3,0,0,0-.431.418l.007.007.986.985a.9.9,0,0,0,1.273,0l1.274-1.274a.9.9,0,0,0,0-1.274l-.669-.67a.294.294,0,0,1-.058-.339,6.238,6.238,0,0,0,.339-.814.293.293,0,0,1,.28-.2h.944a.9.9,0,0,0,.9-.9v-1.8A.9.9,0,0,0,101.1,6.305Z" transform="translate(-87.261)" fill="#2c71ff"/>
    </g>
  </g>
  <g id="Group_2821" data-name="Group 2821" transform="translate(7.064 4.205)">
    <g id="Group_2820" data-name="Group 2820">
      <path id="Path_2258" data-name="Path 2258" d="M193.823,113.191a3.907,3.907,0,0,0-5.52,0,.3.3,0,0,0,.425.425,3.3,3.3,0,1,1,4.7,4.64l-.031.031a.3.3,0,0,0,.417.432l.007-.007A3.907,3.907,0,0,0,193.823,113.191Z" transform="translate(-188.219 -112.049)" fill="#2c71ff"/>
    </g>
  </g>
</svg>
