<svg xmlns="http://www.w3.org/2000/svg" width="19.633" height="19.639" viewBox="0 0 19.633 19.639">
  <path id="Icon_ionic-ios-settings" data-name="Icon ionic-ios-settings" d="M21.433,13.729a2.375,2.375,0,0,1,1.524-2.216,9.414,9.414,0,0,0-1.139-2.745,2.407,2.407,0,0,1-.966.207,2.37,2.37,0,0,1-2.168-3.336A9.386,9.386,0,0,0,15.944,4.5a2.373,2.373,0,0,1-4.432,0A9.414,9.414,0,0,0,8.768,5.639,2.37,2.37,0,0,1,6.6,8.975a2.329,2.329,0,0,1-.966-.207A9.622,9.622,0,0,0,4.5,11.518a2.374,2.374,0,0,1,0,4.432,9.414,9.414,0,0,0,1.139,2.745,2.371,2.371,0,0,1,3.129,3.129,9.469,9.469,0,0,0,2.745,1.139,2.369,2.369,0,0,1,4.422,0,9.414,9.414,0,0,0,2.745-1.139,2.373,2.373,0,0,1,3.129-3.129,9.469,9.469,0,0,0,1.139-2.745A2.386,2.386,0,0,1,21.433,13.729Zm-7.662,3.84a3.845,3.845,0,1,1,3.845-3.845A3.844,3.844,0,0,1,13.772,17.569Z" transform="translate(-3.912 -3.911)" fill="none" stroke="#455560" stroke-width="1"/>
</svg>
