<svg xmlns="http://www.w3.org/2000/svg" width="18.694" height="21.882" viewBox="0 0 18.694 21.882">
  <g id="Tab_Elements_Text_Icon_Inactive_Enabled" data-name="Tab / Elements / Text &amp; Icon / Inactive / Enabled" transform="translate(-31.292 -17)" style="isolation: isolate">
    <g id="surface1" transform="translate(31.292 17)">
      <path id="Path_2356" data-name="Path 2356" d="M17.985,1.556h-.869V.5a.5.5,0,0,0-.994,0V1.56H6.093V.5A.5.5,0,0,0,5.1.5V1.56H4.255A2.485,2.485,0,0,0,1.77,4.042V19.4a2.485,2.485,0,0,0,2.486,2.482H17.978A2.483,2.483,0,0,0,20.464,19.4V4.039A2.481,2.481,0,0,0,17.985,1.556Zm1.489,17.836a1.493,1.493,0,0,1-1.489,1.492H4.255a1.5,1.5,0,0,1-1.492-1.492V4.039A1.493,1.493,0,0,1,4.255,2.55H5.1v.769a.5.5,0,0,0,.994,0V2.55H16.122v.769a.5.5,0,0,0,.994,0V2.55h.869a1.488,1.488,0,0,1,1.489,1.489Zm0,0" transform="translate(-1.77)" fill="#72849a"/>
      <path id="Path_2357" data-name="Path 2357" d="M8.358,11.537,6.528,13.286l-.844-.844a.495.495,0,0,0-.7.7l1.186,1.19a.49.49,0,0,0,.353.142.47.47,0,0,0,.345-.139l2.18-2.087a.5.5,0,0,0-.2-.833A.506.506,0,0,0,8.358,11.537Zm0,0" transform="translate(-2.04 -1.006)" fill="#72849a"/>
      <path id="Path_2358" data-name="Path 2358" d="M18.071,12.543H12.358a.5.5,0,1,0,0,.994h5.713a.5.5,0,0,0,0-.994Zm0,0" transform="translate(-2.66 -1.107)" fill="#72849a"/>
      <path id="Path_2359" data-name="Path 2359" d="M8.358,6.088,6.528,7.837l-.844-.844a.5.5,0,0,0-.7.7L6.168,8.88a.489.489,0,0,0,.353.142.47.47,0,0,0,.345-.139L9.046,6.8a.5.5,0,0,0,.139-.477.476.476,0,0,0-.342-.356A.5.5,0,0,0,8.358,6.088Zm0,0" transform="translate(-2.04 -0.525)" fill="#72849a"/>
      <path id="Path_2360" data-name="Path 2360" d="M18.071,7.094H12.358a.5.5,0,1,0,0,.994h5.713a.5.5,0,0,0,0-.994Zm0,0" transform="translate(-2.66 -0.626)" fill="#72849a"/>
      <path id="Path_2361" data-name="Path 2361" d="M8.358,16.986,6.528,18.735l-.844-.844a.495.495,0,0,0-.7.7l1.186,1.19a.489.489,0,0,0,.353.143.5.5,0,0,0,.345-.139l2.18-2.087a.493.493,0,0,0,.139-.477.488.488,0,0,0-.342-.356A.5.5,0,0,0,8.358,16.986Zm0,0" transform="translate(-2.04 -1.486)" fill="#72849a"/>
      <path id="Path_2362" data-name="Path 2362" d="M18.071,17.992H12.358a.5.5,0,1,0,0,.994h5.713a.5.5,0,0,0,0-.994Zm0,0" transform="translate(-2.66 -1.588)" fill="#72849a"/>
    </g>
  </g>
</svg>
