<svg xmlns="http://www.w3.org/2000/svg" width="18.216" height="16.52" viewBox="0 0 18.216 16.52">
  <g id="procedure" transform="translate(-122.406 -92.659)">
    <g id="Group_2812" data-name="Group 2812" transform="translate(122.406 92.659)">
      <path id="Path_2199" data-name="Path 2199" d="M126.137,92.766a.51.51,0,0,0-.716.089L123.907,94.8l-.611-.683a.51.51,0,1,0-.76.681l1.018,1.137a.51.51,0,0,0,.38.17h.017a.51.51,0,0,0,.385-.2l1.889-2.422A.51.51,0,0,0,126.137,92.766Z" transform="translate(-122.406 -92.659)" fill="#0f243e"/>
      <path id="Path_2200" data-name="Path 2200" d="M217.86,93.062H206.353a.51.51,0,0,0,0,1.02H217.86a.51.51,0,1,0,0-1.02Z" transform="translate(-200.154 -93.034)" fill="#0f243e"/>
      <path id="Path_2201" data-name="Path 2201" d="M217.86,127.788H206.353a.51.51,0,0,0,0,1.02H217.86a.51.51,0,1,0,0-1.02Z" transform="translate(-200.154 -125.393)" fill="#0f243e"/>
      <path id="Path_2202" data-name="Path 2202" d="M217.86,285.272H206.353a.51.51,0,0,0,0,1.02H217.86a.51.51,0,1,0,0-1.02Z" transform="translate(-200.154 -272.14)" fill="#0f243e"/>
      <path id="Path_2203" data-name="Path 2203" d="M217.86,320H206.353a.51.51,0,1,0,0,1.02H217.86a.51.51,0,1,0,0-1.02Z" transform="translate(-200.154 -304.499)" fill="#0f243e"/>
      <path id="Path_2204" data-name="Path 2204" d="M126.137,188.872a.51.51,0,0,0-.716.089l-1.514,1.941-.611-.683a.51.51,0,0,0-.76.681l1.018,1.137a.51.51,0,0,0,.38.17h.017a.51.51,0,0,0,.385-.2l1.889-2.422A.51.51,0,0,0,126.137,188.872Z" transform="translate(-122.406 -182.212)" fill="#0f243e"/>
      <path id="Path_2205" data-name="Path 2205" d="M217.86,189.167H206.353a.51.51,0,0,0,0,1.02H217.86a.51.51,0,1,0,0-1.02Z" transform="translate(-200.154 -182.587)" fill="#0f243e"/>
      <path id="Path_2206" data-name="Path 2206" d="M217.86,223.893H206.353a.51.51,0,0,0,0,1.02H217.86a.51.51,0,1,0,0-1.02Z" transform="translate(-200.154 -214.946)" fill="#0f243e"/>
      <path id="Path_2207" data-name="Path 2207" d="M125.6,285.418a.51.51,0,0,0-.722.007l-.8.813-.8-.813a.51.51,0,0,0-.728.715l.811.826-.811.826a.51.51,0,1,0,.728.715l.8-.813.8.813a.51.51,0,1,0,.728-.715l-.811-.826.811-.826A.51.51,0,0,0,125.6,285.418Z" transform="translate(-122.406 -272.14)" fill="#0f243e"/>
    </g>
  </g>
</svg>
