<svg xmlns="http://www.w3.org/2000/svg" width="19.551" height="19.551" viewBox="0 0 19.551 19.551">
  <path id="Icon_awesome-info-circle" data-name="Icon awesome-info-circle" d="M9.838.562a9.275,9.275,0,1,0,9.275,9.275A9.277,9.277,0,0,0,9.838.562Zm0,4.114A1.571,1.571,0,1,1,8.267,6.247,1.571,1.571,0,0,1,9.838,4.677Zm2.094,9.5a.449.449,0,0,1-.449.449H8.192a.449.449,0,0,1-.449-.449v-.9a.449.449,0,0,1,.449-.449h.449V10.436H8.192a.449.449,0,0,1-.449-.449v-.9a.449.449,0,0,1,.449-.449h2.394a.449.449,0,0,1,.449.449v3.74h.449a.449.449,0,0,1,.449.449Z" transform="translate(-0.063 -0.063)" fill="none" stroke="#455560" stroke-width="1"/>
</svg>
