<svg xmlns="http://www.w3.org/2000/svg" width="18.034" height="17.62" viewBox="0 0 18.034 17.62">
  <g id="united" transform="translate(0 0)">
    <path id="Path_2227" data-name="Path 2227" d="M201.67,447.742l-.053.259.051-.259a.264.264,0,1,0-.1.518h0a.268.268,0,0,0,.05,0,.264.264,0,0,0,.049-.524Zm0,0" transform="translate(-194.261 -431.965)" fill="#10284b"/>
    <path id="Path_2228" data-name="Path 2228" d="M261.186,450.257l.026.263-.027-.263a.264.264,0,0,0,.027.527h.035a.264.264,0,0,0-.061-.525Zm0,0" transform="translate(-251.757 -434.396)" fill="#10284b"/>
    <path id="Path_2229" data-name="Path 2229" d="M231.38,451.231h0a.263.263,0,0,0-.274.252.266.266,0,0,0,.254.276h.012a.264.264,0,0,0,.012-.528Zm0,0" transform="translate(-222.962 -435.336)" fill="#10284b"/>
    <path id="Path_2230" data-name="Path 2230" d="M172.931,439.807h0a.263.263,0,0,0-.336.16.265.265,0,1,0,.34-.159Zm0,0" transform="translate(-166.498 -424.299)" fill="#10284b"/>
    <path id="Path_2231" data-name="Path 2231" d="M290.551,444.811l.065.256-.066-.256a.264.264,0,1,0,.132.512l.007,0a.264.264,0,0,0-.138-.51Zm0,0" transform="translate(-280.125 -429.135)" fill="#10284b"/>
    <path id="Path_2232" data-name="Path 2232" d="M318.75,434.975l.1.242-.106-.242a.264.264,0,1,0,.211.484l.006,0a.264.264,0,0,0-.217-.482Zm0,0" transform="translate(-307.369 -419.632)" fill="#10284b"/>
    <path id="Path_2233" data-name="Path 2233" d="M146.743,79.217a.264.264,0,1,0-.123-.5l0,0a.264.264,0,0,0,.127.5Zm0,0" transform="translate(-141.319 -75.917)" fill="#10284b"/>
    <path id="Path_2234" data-name="Path 2234" d="M63.378,163.735a.264.264,0,0,0,.357-.111l0-.009a.264.264,0,1,0-.361.121Zm0,0" transform="translate(-61.01 -157.484)" fill="#10284b"/>
    <path id="Path_2235" data-name="Path 2235" d="M51.776,191.5a.264.264,0,0,0,.335-.166l0-.01a.264.264,0,1,0-.338.176Zm0,0" transform="translate(-49.779 -184.255)" fill="#10284b"/>
    <path id="Path_2236" data-name="Path 2236" d="M79.072,138.077a.264.264,0,0,0,.369-.058l0,0a.264.264,0,0,0-.43-.307l.213.157-.214-.155a.264.264,0,0,0,.058.369Zm0,0" transform="translate(-76.182 -132.75)" fill="#10284b"/>
    <path id="Path_2237" data-name="Path 2237" d="M121.309,95.351a.265.265,0,1,0-.153-.48l-.007,0a.264.264,0,0,0,.16.475Zm0,0" transform="translate(-116.781 -91.48)" fill="#10284b"/>
    <path id="Path_2238" data-name="Path 2238" d="M49.649,309.966a.264.264,0,1,0,0-.012Zm0,0" transform="translate(-47.888 -298.715)" fill="#10284b"/>
    <path id="Path_2239" data-name="Path 2239" d="M98.654,115.138a.265.265,0,1,0-.185-.453l0,0a.264.264,0,0,0,.189.449Zm0,0" transform="translate(-94.925 -110.57)" fill="#10284b"/>
    <path id="Path_2240" data-name="Path 2240" d="M43.876,280.424a.264.264,0,0,0-.524.065l0,.011a.264.264,0,0,0,.261.225l.039,0A.264.264,0,0,0,43.876,280.424Zm0,0" transform="translate(-41.823 -270.324)" fill="#10284b"/>
    <path id="Path_2241" data-name="Path 2241" d="M41.847,250.68h.008a.264.264,0,0,0,.264-.256v-.011a.264.264,0,1,0-.272.268Zm0,0" transform="translate(-40.126 -241.337)" fill="#10284b"/>
    <path id="Path_2242" data-name="Path 2242" d="M44.55,220.712a.273.273,0,0,0,.047,0,.264.264,0,0,0,.26-.218l0-.012a.264.264,0,1,0-.308.225Zm0,0" transform="translate(-42.771 -212.428)" fill="#10284b"/>
    <path id="Path_2243" data-name="Path 2243" d="M402.963,142.171a.264.264,0,0,0,.435-.3l-.22.147.219-.148a.264.264,0,0,0-.437.3Zm0,0" transform="translate(-388.723 -136.761)" fill="#10284b"/>
    <path id="Path_2244" data-name="Path 2244" d="M436.175,229.024a.264.264,0,0,0-.233.292v.011a.264.264,0,0,0,.261.227l.038,0a.266.266,0,0,0-.067-.528Zm0,0" transform="translate(-420.586 -220.955)" fill="#10284b"/>
    <path id="Path_2245" data-name="Path 2245" d="M429.649,198.624v0a.264.264,0,0,0,.253.19.26.26,0,0,0,.075-.011.264.264,0,0,0,.179-.328v0a.264.264,0,0,0-.507.149Zm0,0" transform="translate(-414.506 -191.301)" fill="#10284b"/>
    <path id="Path_2246" data-name="Path 2246" d="M418.561,169.341a.265.265,0,0,0,.238.148.264.264,0,0,0,.237-.38l-.239.112.239-.112a.264.264,0,0,0-.478.224Zm0,0" transform="translate(-403.791 -163.005)" fill="#10284b"/>
    <path id="Path_2247" data-name="Path 2247" d="M383.272,117.8a.266.266,0,1,0-.008-.008Zm0,0" transform="translate(-369.697 -113.217)" fill="#10284b"/>
    <path id="Path_2248" data-name="Path 2248" d="M437.588,260.385a.266.266,0,0,0-.023.531h.015a.264.264,0,0,0,.263-.25v-.011A.264.264,0,0,0,437.588,260.385Zm0,0" transform="translate(-421.913 -251.213)" fill="#10284b"/>
    <path id="Path_2249" data-name="Path 2249" d="M333.69,79.766l.006,0a.263.263,0,0,0,.356-.109.265.265,0,0,0-.107-.358l-.128.231.127-.232a.264.264,0,1,0-.254.463Zm0,0" transform="translate(-321.805 -76.478)" fill="#10284b"/>
    <path id="Path_2250" data-name="Path 2250" d="M359.985,96.82l0,0a.264.264,0,0,0,.319-.421h0a.264.264,0,1,0-.322.419Zm0,0" transform="translate(-347.206 -92.952)" fill="#10284b"/>
    <path id="Path_2251" data-name="Path 2251" d="M17.871,13.171l-1.24-1.242a.558.558,0,0,0-.79,0l-.029.029-.081-.081a1.066,1.066,0,0,1-.231-.346.257.257,0,0,0-.019-.049,1.068,1.068,0,0,1-.062-.359v-.351a.266.266,0,1,0,0-.47,1.489,1.489,0,0,0-.437-.993L13.778,8.1a1.427,1.427,0,0,0-1.825-.164l-.128-.128V4.789a1.5,1.5,0,0,0-.372-.989,1.066,1.066,0,0,1-.265-.7V2.875h.018a.559.559,0,0,0,.558-.559V.559A.559.559,0,0,0,11.206,0H6.271a.559.559,0,0,0-.558.559V2.316a.559.559,0,0,0,.558.559h.041v.116A1.06,1.06,0,0,1,6,3.745l-.533.534a1.49,1.49,0,0,0-.438,1.06v1.7a1.424,1.424,0,0,0,.153.644,1.419,1.419,0,0,0-.927.417l-1.2,1.205a1.491,1.491,0,0,0-.438,1.06v.755a1.06,1.06,0,0,1-.312.754l-.08.081h0l-.029-.029a.558.558,0,0,0-.79,0L.163,13.171a.56.56,0,0,0,0,.79l.425.425a.264.264,0,1,0,.374-.373l-.425-.425a.031.031,0,0,1,0-.043L1.777,12.3a.03.03,0,0,1,.042,0l.216.216h0l2.944,2.949.33.33a.031.031,0,0,1,0,.043l-1.24,1.242a.03.03,0,0,1-.042,0L1.709,14.762a.264.264,0,1,0-.374.373l2.317,2.321a.558.558,0,0,0,.79,0l1.24-1.242a.56.56,0,0,0,0-.79l-.013-.013.156-.157a1.062,1.062,0,0,1,.683-.31,1.5,1.5,0,0,0,.962-.436L8.61,13.367a.9.9,0,0,0,.654-.689.9.9,0,0,0,1.287-.815v-.627a.9.9,0,0,0,1.274-.821V8.56l.813.817A.264.264,0,1,0,13.012,9l-.677-.681a.9.9,0,0,1,1.069.154l1.2,1.205a.966.966,0,0,1,.284.687v.755a1.585,1.585,0,0,0,.466,1.127l.082.082-.383.384-2.318,2.322-.129-.129,0,0-.023-.023a1.591,1.591,0,0,0-1.023-.464.969.969,0,0,1-.623-.283l-.868-.863a.264.264,0,1,0-.373.375l.868.863a1.5,1.5,0,0,0,.962.436,1.062,1.062,0,0,1,.683.31l.013.013.022.022.122.122-.013.014a.56.56,0,0,0,0,.79l1.24,1.242a.558.558,0,0,0,.79,0l3.49-3.5a.56.56,0,0,0,0-.79ZM15.6,10.544h0l-.048-.01ZM7.1,14.135a.967.967,0,0,1-.622.282,1.591,1.591,0,0,0-1.023.464l-.156.156-.14-.141-.005-.005L2.595,12.332l.082-.082a1.585,1.585,0,0,0,.466-1.127v-.755a.965.965,0,0,1,.284-.687l1.2-1.205A.9.9,0,0,1,5.7,8.324L5.022,9a.264.264,0,0,0,.374.373l.811-.812v3.3a.9.9,0,0,0,1.292.813.905.905,0,0,0,.448.608Zm4.2-3.721a.373.373,0,1,1-.745,0V7.467a.264.264,0,1,0-.528,0v4.4a.372.372,0,0,1-.74.062V7.464a.267.267,0,0,0-.534,0v4.4a.906.906,0,0,0,.006.1v.532a.373.373,0,1,1-.745,0V7.461a.264.264,0,0,0-.528,0v4.4a.373.373,0,1,1-.745,0V6.948a.264.264,0,1,0-.528,0v.909a.259.259,0,0,0-.064.03.9.9,0,0,1-.585-.845v-1.7a.966.966,0,0,1,.284-.687l.533-.534A1.585,1.585,0,0,0,6.84,2.991V2.875h.531a.264.264,0,1,0,0-.528h-1.1a.03.03,0,0,1-.03-.03V.559a.03.03,0,0,1,.03-.03h4.935a.03.03,0,0,1,.03.03V2.316a.03.03,0,0,1-.03.03H8.612a.264.264,0,1,0,0,.528h2.048V3.1a1.6,1.6,0,0,0,.4,1.052.971.971,0,0,1,.241.641Zm6.2,3.174-3.49,3.5a.028.028,0,0,1-.021.009.029.029,0,0,1-.021-.009l-1.24-1.242a.031.031,0,0,1,0-.043l.2-.2h0l2.026-2.029L16.215,12.3a.029.029,0,0,1,.042,0l1.24,1.242A.031.031,0,0,1,17.5,13.588Zm0,0" transform="translate(0)" fill="#10284b"/>
    <path id="Path_2252" data-name="Path 2252" d="M194.1,32.8a.282.282,0,1,0,.281.282A.282.282,0,0,0,194.1,32.8Zm0,0" transform="translate(-186.99 -31.649)" fill="#10284b"/>
    <path id="Path_2253" data-name="Path 2253" d="M455.7,374.688a.282.282,0,1,0,.281.282A.282.282,0,0,0,455.7,374.688Zm0,0" transform="translate(-439.373 -361.49)" fill="#10284b"/>
    <path id="Path_2254" data-name="Path 2254" d="M109.574,443.485a.281.281,0,1,0-.281.282A.282.282,0,0,0,109.574,443.485Zm0,0" transform="translate(-105.172 -427.592)" fill="#10284b"/>
  </g>
</svg>
