<svg xmlns="http://www.w3.org/2000/svg" width="18.051" height="11.772" viewBox="0 0 18.051 11.772">
  <g id="user_2_" data-name="user (2)" transform="translate(0 -85.333)">
    <g id="Group_2845" data-name="Group 2845" transform="translate(6.278 85.333)">
      <g id="Group_2844" data-name="Group 2844" transform="translate(0 0)">
        <path id="Path_2276" data-name="Path 2276" d="M173.413,85.333a2.747,2.747,0,1,0,2.747,2.747A2.75,2.75,0,0,0,173.413,85.333Zm0,4.709a1.962,1.962,0,1,1,1.962-1.962A1.965,1.965,0,0,1,173.413,90.042Z" transform="translate(-170.666 -85.333)" fill="#4b4b4e"/>
      </g>
    </g>
    <g id="Group_2847" data-name="Group 2847" transform="translate(12.557 88.472)">
      <g id="Group_2846" data-name="Group 2846" transform="translate(0 0)">
        <path id="Path_2277" data-name="Path 2277" d="M343.3,170.667a1.962,1.962,0,1,0,1.962,1.962A1.965,1.965,0,0,0,343.3,170.667Zm0,3.139a1.177,1.177,0,1,1,1.177-1.177A1.179,1.179,0,0,1,343.3,173.806Z" transform="translate(-341.334 -170.667)" fill="#4b4b4e"/>
      </g>
    </g>
    <g id="Group_2849" data-name="Group 2849" transform="translate(1.625 88.472)">
      <g id="Group_2848" data-name="Group 2848" transform="translate(0 0)">
        <path id="Path_2278" data-name="Path 2278" d="M46.144,170.667a1.962,1.962,0,1,0,1.962,1.962A1.964,1.964,0,0,0,46.144,170.667Zm0,3.139a1.177,1.177,0,1,1,1.177-1.177A1.179,1.179,0,0,1,46.144,173.806Z" transform="translate(-44.182 -170.667)" fill="#4b4b4e"/>
      </g>
    </g>
    <g id="Group_2851" data-name="Group 2851" transform="translate(3.924 91.611)">
      <g id="Group_2850" data-name="Group 2850" transform="translate(0 0)">
        <path id="Path_2279" data-name="Path 2279" d="M111.767,256a5.107,5.107,0,0,0-5.1,5.1.392.392,0,1,0,.785,0,4.316,4.316,0,0,1,8.633,0,.392.392,0,1,0,.785,0A5.107,5.107,0,0,0,111.767,256Z" transform="translate(-106.666 -256)" fill="#4b4b4e"/>
      </g>
    </g>
    <g id="Group_2853" data-name="Group 2853" transform="translate(12.501 93.181)">
      <g id="Group_2852" data-name="Group 2852" transform="translate(0 0)">
        <path id="Path_2280" data-name="Path 2280" d="M341.831,298.667a3.532,3.532,0,0,0-1.829.51.392.392,0,0,0,.407.671,2.747,2.747,0,0,1,4.169,2.35.392.392,0,1,0,.785,0A3.536,3.536,0,0,0,341.831,298.667Z" transform="translate(-339.813 -298.667)" fill="#4b4b4e"/>
      </g>
    </g>
    <g id="Group_2855" data-name="Group 2855" transform="translate(0 93.181)">
      <g id="Group_2854" data-name="Group 2854" transform="translate(0 0)">
        <path id="Path_2281" data-name="Path 2281" d="M5.36,299.176A3.533,3.533,0,0,0,0,302.2a.392.392,0,1,0,.785,0,2.748,2.748,0,0,1,4.168-2.351.392.392,0,1,0,.407-.671Z" transform="translate(0 -298.667)" fill="#4b4b4e"/>
      </g>
    </g>
  </g>
</svg>
