<svg xmlns="http://www.w3.org/2000/svg" width="23.624" height="15" viewBox="0 0 23.624 15">
  <g id="group_3_" data-name="group (3)" transform="translate(0 -92.25)">
    <g id="Group_2872" data-name="Group 2872" transform="translate(0 92.25)">
      <path id="Path_2341" data-name="Path 2341" d="M20.432,98.85a2.7,2.7,0,1,0-3.094,0,4.673,4.673,0,0,0-1.594.935,6.047,6.047,0,0,0-2.188-1.192,3.417,3.417,0,1,0-3.534,0,6.1,6.1,0,0,0-2.164,1.178,4.711,4.711,0,0,0-1.575-.916,2.7,2.7,0,1,0-3.094,0A4.734,4.734,0,0,0,0,103.328v.309a.02.02,0,0,0,.019.019H5.735a6.287,6.287,0,0,0-.051.79v.318a2.486,2.486,0,0,0,2.487,2.487h7.245a2.486,2.486,0,0,0,2.487-2.487v-.318a6.287,6.287,0,0,0-.051-.79h5.754a.02.02,0,0,0,.019-.019v-.309A4.752,4.752,0,0,0,20.432,98.85Zm-3.5-2.211a1.949,1.949,0,1,1,1.987,1.949h-.075A1.946,1.946,0,0,1,16.935,96.639ZM9.11,95.667a2.669,2.669,0,1,1,2.823,2.664h-.309A2.673,2.673,0,0,1,9.11,95.667Zm-6.338.972a1.949,1.949,0,1,1,1.987,1.949H4.684A1.949,1.949,0,0,1,2.772,96.639ZM5.866,102.9H.757a3.994,3.994,0,0,1,3.936-3.567h.056a3.952,3.952,0,0,1,2.548.949A6.137,6.137,0,0,0,5.866,102.9Zm11.279,1.86a1.742,1.742,0,0,1-1.739,1.739H8.161a1.742,1.742,0,0,1-1.739-1.739v-.318a5.369,5.369,0,0,1,5.2-5.361c.051,0,.108,0,.159,0s.108,0,.159,0a5.369,5.369,0,0,1,5.2,5.361Zm.556-1.86a6.121,6.121,0,0,0-1.416-2.6,3.971,3.971,0,0,1,2.571-.968h.056a3.994,3.994,0,0,1,3.936,3.567Z" transform="translate(0 -92.25)" fill="#455560"/>
    </g>
  </g>
</svg>
